<?xml version="1.0" encoding="utf-8"?>
<!-- Generator: Adobe Illustrator 24.0.0, SVG Export Plug-In . SVG Version: 6.00 Build 0)  -->
<svg version="1.1" id="Capa_1" xmlns="http://www.w3.org/2000/svg" xmlns:xlink="http://www.w3.org/1999/xlink" x="0px" y="0px"
	 viewBox="0 0 193.2 195.4" style="enable-background:new 0 0 193.2 195.4;" xml:space="preserve">
<style type="text/css">
	.st0{fill:#FFFFFF;}
	.st1{fill:#3C3935;}
</style>
<g>
	<path class="st1" d="M66.9,195.4c-0.2,0-0.4,0-0.7,0c-0.4,0-0.9,0-1.3,0c-0.2,0-0.4,0-0.7,0c-4.2-0.6-8.4-1.3-12.6-1.9
		c-3.6-0.6-7.2-1.2-10.8-1.9c-4.4-0.8-8.8-1.5-13.1-2.7c-2.2-0.6-4.3-1.7-6.4-2.9c-1.8-1-3.5-2.4-5.2-3.6c-0.3-0.2-0.6-0.6-0.9-0.9
		c0,0,0,0,0,0c-0.5-0.2-1.2-0.2-1.4-0.5c-1.7-2.7-3.3-5.4-4.8-8.3c-1.1-2.1-2.2-4.4-2.6-6.7c-0.7-3.7-0.8-7.6-1.1-11.4
		c-0.2-3.1-0.5-6.2-0.5-9.3c0-2.1,0.7-4.2,0.5-6.3c-0.2-3.8-0.9-7.6-1.2-11.5c-0.1-1.9,0.5-3.9,0.6-5.8c0.1-2.1,0-4.2,0-6.3
		c0.1,0,0.1,0.1,0.2,0.1c-0.1,0-0.1,0-0.2,0c-0.1-1.4-0.2-2.7-0.3-4.1c-0.3-3.8-0.6-7.7-0.9-11.5c-0.3-2.6-0.9-5.1-1-7.7
		c-0.1-2.7,0.4-5.5,0.3-8.2c-0.1-1.9-1-3.9-1.1-5.8c-0.1-1.8,0.5-3.6,0.6-5.4c0-2.3-0.1-4.7-0.4-7c-0.5-4.5-1.2-8.9-1.7-13.3
		c-0.2-2,0-4.1-0.1-6.2c-0.1-2.2-0.5-4.5-0.2-6.7c0.4-3.7,1.1-7.4,2-11.1c0.3-1.2,1.3-2.3,1.8-3.5c1.3-2.7,1.9-6.5,4-8
		c5-3.4,10.7-5.9,16.4-8.3c3.3-1.3,7-1.9,10.5-2.3c4.1-0.6,8.2-0.7,12.4-1c0.1,0,0.1,0.1,0.2,0.1c-0.1,0-0.1,0-0.2,0
		c0.5-0.2,1-0.6,1.4-0.6c2,0,4,0.6,5.9,0.3c4.5-0.7,8.9-1.8,13.4-2.5c5.7-0.8,11.3-1.4,17-1.8C92.6,0.4,100.3,0,108,0
		c12.4,0.1,24.9,0.5,37.3,0.8c6,0.2,12.2-0.2,18,0.8c5.4,1,10.6,3.4,15.8,5.4c5.7,2.2,8.9,6.3,9,12.7c0.1,4.9,0.4,9.7,0.8,14.5
		c0.4,4.8,1.6,9.6,1.7,14.4c0.1,5.2-0.7,10.3-1,15.5c-0.2,2.8-0.7,5.5-0.5,8.3c0.2,4.3,1,8.5,1.3,12.7c0.2,2.5,0.1,5,0.3,7.4
		c0.3,4.3,0.6,8.7,0.9,13c0.1,2.2,0.1,4.5,0.2,6.7c0.1,2.3,0.5,4.6,0.4,6.8c-0.1,1.6-1.2,3.1-1.4,4.7c-0.2,1.8-0.1,3.8,0.2,5.6
		c0.4,2.6,1,5.2,1.4,7.9c0.4,2.3,0.6,4.6,0.9,6.9c0,0.1,0,0.3,0,0.4c-0.1,0.6-0.1,1.2-0.2,1.8c-0.8,2.9-1.9,5.7-2.5,8.6
		c-0.4,2.1,0.4,4.5-0.2,6.6c-1,3.6-2.4,7.1-4.1,10.5c-1,2-2.6,3.8-4.2,5.5c-1.5,1.5-3.1,3.2-5,3.9c-2.6,1-5.6,1.2-8.4,1.7
		c-2,0.4-4,0.7-6,1c0-0.1,0.1-0.1,0.1-0.2c0,0.1,0,0.1,0,0.2c-0.1,0-0.1-0.1-0.1-0.1c-0.2,0-0.4,0-0.6,0c0,0,0,0.1,0,0.1
		c0.2,0,0.4,0,0.6-0.1c-0.2,0.3-0.4,0.7-0.7,0.7c-2.8,0.4-5.7,0.8-8.5,1.1c-5.4,0.6-10.7,1.1-16.1,1.7c-3.8,0.4-7.6,1-11.4,1.4
		c-4.9,0.4-9.8,0.5-14.6,1c-5.8,0.6-11.6,1.4-17.4,2.1c-2.8,0.3-5.6,0.4-8.3,0.8c-2.2,0.3-4.4,1.1-6.6,1.6c-1.7,0.4-3.4,0.6-5.1,0.8
		c-0.1,0-0.3,0-0.4,0C71.1,195.4,69,195.4,66.9,195.4z M23.7,179.4c1.7,0.7,3.4,1.4,5.1,2.2c2.4,1,4.7,2.4,7.1,3
		c4,1,8.2,1.8,12.3,2.3c2.9,0.4,5.9,0,8.8,0.3c1.5,0.1,2.8,1.3,4.3,1.6c1.9,0.4,3.9,0.4,5.8,0.4c1.6,0,3.3-0.1,4.9-0.3
		c2.8-0.3,5.6-0.8,8.5-1c1.8-0.1,3.7,0.3,5.4,0.1c2.1-0.3,4.2-1.3,6.3-1.5c2.2-0.2,4.5,0.6,6.7,0.4c1.9-0.1,3.6-1.1,5.5-1.4
		c4.1-0.6,8.1-1.1,12.2-1.5c3.4-0.3,6.9-0.3,10.4-0.7c3.4-0.4,6.6-1.5,10-1.9c3.8-0.5,7.6-0.6,11.3-1c1.9-0.2,3.7-1,5.6-1.2
		c2.1-0.2,4.3,0.1,6.4-0.2c2.6-0.4,5-1.3,7.6-1.8c2.4-0.4,5-0.2,7.2-1.1c1.5-0.6,2.6-2.4,3.7-3.9c1.5-2,3.3-3.9,4-6.2
		c1.1-3.6,1.6-7.3,2-11.1c0.6-5.8,1-11.6,1.1-17.5c0.1-3.1-0.6-6.2-0.6-9.4c0-4,0.6-8,0.5-12c0-2.8-0.8-5.5-1-8.3
		c-0.3-3.6-0.3-7.3-0.4-11c-0.1-1.9-0.3-3.7-0.3-5.6c-0.1-3.4-0.1-6.8-0.3-10.2c-0.1-2.2-0.4-4.4-0.5-6.6c0-0.7,0.1-1.4,0-2.1
		c-0.1-1.5-0.5-2.9-0.6-4.4c-0.2-2.5,0.3-5.2-0.6-7.4c-0.3-0.8-3.7-0.5-5.7-0.4c-4.1,0.2-8.1,0.6-12.2,0.9
		c-3.8,0.3-7.7,0.5-11.6,0.6c-5.1,0.2-10.3,0.4-15.4,0.3c-4.3-0.1-8.6-0.2-12.8-1.1c-1.4-0.3-2-3.2-3.5-4.1
		c-4.3-2.5-8.8-4.9-13.4-6.8c-4-1.7-8.1-3.2-12.3-3.7c-3.7-0.4-8.1-0.3-11.4,1.2c-6.9,3-13.3,7.1-20,10.7c-1.8,1-4.5,1.2-5.6,2.6
		c-0.9,1.2,0.3,3.9-0.2,5.7C57,71.4,56.3,77,49.9,78.4c-2.6,0.6-5.1,1.7-7.8,2.2c-4.2,0.7-8.4,1.1-12.6,1.4c-2.9,0.2-7,1-8.4-0.5
		c-2.1-2.2-3.1-6.3-3-9.5c0-3.6-2.3-8.3-5.9-8.4c-1.4,0-4,0.4-4,0.7c-0.1,3.2,0.4,6.4,0.4,9.5c0,1.5-1,3.1-0.9,4.5
		c0.5,4.2,1.5,8.4,1.9,12.7c0.3,3.9,0,8,0.1,11.9c0.2,4.3,0.6,8.6,0.8,12.9c0.2,4.6,0.4,9.1,0.4,13.7c0,3.1-0.6,6.1-0.5,9.2
		c0.1,3.3,0.7,6.6,1,9.9c0.2,2.3,0.1,4.6,0.3,6.9c0.2,2.8,0.7,5.5,1.1,8.2c0.1,0.7,0.1,1.4,0.4,2c1.5,3.1,2.9,6.4,4.9,9.2
		C19.4,176.9,21.8,178,23.7,179.4c0,0.1,0,0.1,0,0.2C23.6,179.6,23.6,179.5,23.7,179.4z M178.6,21.5c0.5-0.2,1-0.4,1.5-0.7
		c-1.4-2.3-2.2-5.9-4.2-6.7c-5.4-2.3-11.1-3.8-16.9-4.9c-4.9-0.9-10-0.9-15-1.2c-6.5-0.4-13-0.7-19.4-0.9C119.3,7,113.8,7,108.4,7.1
		c-5.8,0-11.6,0.1-17.4,0.1c-5.9,0.1-11.9,0-17.8,0.4C69.1,7.8,65,8.7,61,9.6c-1.5,0.3-3.8,1.4-3.9,2.3c-0.4,4,0.1,8.1,0,12.1
		c-0.1,3.5-0.7,7-0.8,10.5c0,2.1,0.7,4.3,1,6.4c0.3,2.2,0,4.5,0.6,6.7c0.4,1.6,2.2,4.3,2.5,4.1c4.8-1.8,9.5-4,14.2-6.1
		c4.7-2.1,9.2-5,14.2-6c4.2-0.9,8.9-0.1,13.3,0.7c3.2,0.6,6.2,2.5,9.3,3.8c2.8,1.1,5.7,2,8.5,3.2c5.2,2.4,7.7,9.6,15.4,7.9
		c3.8-0.8,7.9,0.2,11.9,0.2c5-0.1,10.1-0.5,15.1-0.7c4.8-0.2,9.7,0.2,14.5-0.5c2.5-0.4,6.6-2.4,6.7-3.9c0.4-4.7-0.5-9.6-1.3-14.3
		C181.2,31.1,179.8,26.3,178.6,21.5z M34.2,58.7c0,0.1,0,0.3,0,0.4c-0.7,0-1.6-0.3-2,0c-2.5,1.7-5.9,3-7.1,5.4
		c-1.2,2.3-0.5,5.8-0.1,8.7c0.2,1.2,1.9,3.1,2.9,3c4.9-0.4,9.8-1.3,14.7-2.1c4.3-0.7,10.2,0.4,8.6-7.3c-0.1-0.3,0.2-0.7,0.2-1
		c0.1-2,0.4-4,0.2-5.9c-0.1-0.5-1.8-1.2-2.7-1.2C43.9,58.6,39.1,58.7,34.2,58.7z M15.7,54.9c0.1-0.3,0.9-1.8,1-3.4
		c0.2-3.8,0.3-7.6,0.2-11.5c-0.2-5.8-0.5-11.6-0.9-17.5c0-0.9-0.3-1.8-0.4-2.7c-0.3,0.1-0.9,0.1-1,0.3c-2.2,4.2-4.3,8.5-6.4,12.8
		c-0.5,1-0.7,2.1-0.6,3.2c0.1,1.5,0.9,3,0.8,4.4c-0.2,5-0.6,10-0.9,15.1c0,0.4,0.2,0.8,0.3,1.3C9.8,56.4,11.7,55.9,15.7,54.9z
		 M29.3,29.7c0,0,0.7-0.3,0.7-0.6c-0.3-2.9-0.8-5.8-1.3-8.8c-0.3-2-0.7-4-1.1-6.1c-1.7,1.6-4.5,3-4.9,4.9c-0.8,4.7-0.8,9.6-0.6,14.4
		c0.1,3.4,1,6.7,1.3,10.1c0.2,2.6,0,5.2,0.2,7.8c0.1,1.1,0.8,2.2,1.2,3.2c1.5-1.6,7.2,1.2,4.4-4.9c-1.2-2.6-0.1-6.2-0.1-9.4
		C29.3,37.2,29.3,33.8,29.3,29.7z M37.3,51.4c0.8,0,1.6,0,2.4,0c0.2-1.9,0.3-3.9,0.5-5.8c0.3-3.3,0.7-6.6,0.8-9.9
		c0-1.2-0.9-2.5-0.9-3.6c0.1-2,0.9-4,1-6c0.2-2.2,0.4-4.4,0-6.5c-0.6-2.7,3.1-6.5-1.8-8c-1.5-0.4-3.3,0.1-5,0.4c-0.1,0,0,1.3,0,1.9
		c0.1,1.8,0.2,3.7,0.3,5.5c0.1,2.1,0.1,4.3,0.1,6.4c0,0.5-0.9,1-0.8,1.4c0.2,1,1,2,1.1,2.9c0.1,2.1-0.5,4.3-0.3,6.3
		c0.3,3.8,1,7.5,1.6,11.2C36.4,48.9,37,50.1,37.3,51.4z M49,50.9c0.8-0.1,1.5-0.3,2.3-0.4c-0.1-0.5-0.3-1-0.3-1.5
		c-0.1-4.1-0.2-8.1-0.2-12.2c0-6.3,0.1-12.6,0.2-18.9c0-0.9,0-1.8-0.1-2.7c-0.1-1.4-0.2-2.7-0.4-4.1c0-0.1-1.4-0.2-1.6,0
		c-0.6,0.8-1,1.8-1.2,2.8c-0.1,1.1,0.3,2.3,0.2,3.5c-0.5,6.1-1.2,12.3-1.4,18.4c-0.1,3.4,0.8,6.9,1.4,10.3
		C48.1,47.9,48.6,49.4,49,50.9z M3.7,90.5c0.1,0.1,0.1,0.2,0.2,0.2c0,0,0.1,0,0.2,0c-0.1-0.1-0.1-0.2-0.2-0.3
		C3.8,90.4,3.7,90.4,3.7,90.5z M6.4,159.8c-0.1,0-0.1-0.1-0.2-0.1c0,0-0.1,0-0.1,0.1c0,0,0.1,0.1,0.1,0.1
		C6.3,159.9,6.4,159.8,6.4,159.8z M191.2,121C191.2,121,191.1,121,191.2,121c-0.1,0.1,0,0.1,0,0.1
		C191.2,121.1,191.2,121.1,191.2,121C191.2,121,191.2,121,191.2,121z"/>
	<path class="st1" d="M15.4,181.5c0.1,0,0.1,0,0.2,0C15.5,181.5,15.5,181.5,15.4,181.5C15.4,181.4,15.4,181.5,15.4,181.5z"/>
	<path class="st1" d="M123.2,156.9c-3.2,0.7-6.3,1.4-9.5,2c-3.1,0.6-6.3,1.4-9.5,1.4c-5.7-0.1-11.3-0.7-17-1.2
		c-4-0.4-8.1-0.8-12-1.8c-2.2-0.6-4-2.4-5.9-3.7c-1.2-0.8-2.4-1.5-3.5-2.4c-1.2-1-2.2-2.2-3.2-3.4c-0.2-0.3-0.3-0.7-0.4-1
		c0.3,0,0.6,0,0.9-0.1c0.1,0,0.2-0.3,0.3-0.5c-0.5-0.2-1.3-0.3-1.6-0.8c-1.3-1.6-2.9-3.1-3.8-5c-2-4.4-4.2-8.8-5.1-13.4
		c-1.2-6.3-1.7-12.8-1.7-19.2c0-3.7,1.1-7.6,2.3-11.2c0.9-2.6,2.8-5,4.3-7.4c1.3-2,2.5-4.2,4.1-6c3.3-3.7,6.6-7.6,10.5-10.5
		c4.1-3.1,8.7-6.9,13.4-7.4c9.5-1.1,19.3-0.6,29-0.1c3.8,0.2,7.7,1.8,11.3,3.4c3.5,1.5,6.8,3.6,9.9,5.7c2.2,1.5,4.4,3.4,5.9,5.6
		c1.9,2.8,3.7,6,4.6,9.2c1.5,5.4,2.3,10.9,3.3,16.4c0.5,3.1,0.9,6.2,1.1,9.3c0,0.6-0.8,1.3-1.1,2c-0.1,0.1,0.4,0.5,0.3,0.7
		c-0.5,2.1-0.9,4.2-1.6,6.2c-0.7,2.3-1.4,4.7-2.5,6.8c-1.7,3.3-3.7,6.5-5.8,9.7c-1.7,2.6-3.5,5-5.5,7.4c-1.3,1.6-3,2.9-4.6,4.3
		c-2,1.7-4,3.3-6.1,5c-0.2,0.1-0.5,0.1-0.8,0.2C123.3,157,123.2,157,123.2,156.9z M70.2,153.8c0.1,0,0.1,0.1,0.2,0.1
		C70.3,153.9,70.2,153.8,70.2,153.8c-0.1,0-0.2-0.1-0.3-0.2c0,0,0,0-0.1,0.1C70,153.7,70.1,153.8,70.2,153.8z M134.5,104.1
		c-0.3-0.1-0.7-0.2-1-0.3c-0.3-1.1-0.4-2.3-1-3.3c-3.6-6.1-7.2-12.1-14.7-14.5c-4.8-1.6-9.3-5-14.1-5.5c-5.7-0.6-12-0.1-17.5,1.8
		c-5,1.7-9.6,5.6-13.6,9.2c-2.1,1.9-2.8,5.3-4,8.1c-0.6,1.4-1.2,3-1.2,4.4c0.1,2,1,3.9,1.2,5.9c0.2,4-0.6,8.3,0.3,12.1
		c0.9,3.6,3.2,7.2,5.7,10c2,2.3,5,3.9,7.9,5.1c4.5,1.9,9.2,3.6,13.9,4.7c3.8,0.9,7.8,1.3,11.7,1.1c3.5-0.2,8.1-0.4,10.1-2.6
		c4.6-5,8.6-10.9,11.4-17.1C132.1,117.4,132.9,110.6,134.5,104.1z M133.4,129c-1.2,0.4-1.4,0.5-1.6,0.5c0.1,0.2,0.2,0.5,0.2,0.7
		c0,1.2,0.2,2.7-0.3,3.7c-0.8,1.7-2.1,3.1-3.2,4.6c-1.2,1.7-2.2,3.6-3.7,4.9c-2.4,2-4.9,4.8-7.7,5.1c-7.3,0.8-14.7,0.7-22,0.4
		c-2.3-0.1-4.5-1.8-6.8-2.8c-5.4-2.3-11.1-4.2-16.1-7.1c-2.2-1.3-3.4-4.6-4.9-7.1c-1.7-2.9-3.3-5.9-4.5-9c-0.4-1,1-2.7,0.9-4
		c-0.4-2.9-1.4-5.7-1.8-8.6c-0.3-2.3-0.1-4.7,0.2-6.9c0.5-3,1.3-5.9,2-8.9c0.1-0.4-0.1-0.9-0.2-1.4c-0.3,0.2-0.8,0.4-1,0.7
		c-1.4,2.8-3.3,5.5-4,8.5c-1,4.4-1.2,9-1.7,13.5c-0.2,1.3-1,2.7-0.6,3.7c0.7,1.9,2.1,3.5,3,5.4c1.7,3.8,2.9,7.7,4.7,11.4
		c1.4,2.8,3.5,5.4,5.3,7.9c1,1.3,2,2.6,3.3,3.7c1.3,1,2.8,1.9,4.3,2.4c2.3,0.8,4.8,1.3,7.2,1.6c2.8,0.4,5.6,0.5,8.3,0.6
		c4.3,0.2,8.6,0.5,12.8,0.2c3.5-0.3,7.2-0.8,10.4-2.2c5.4-2.4,10.7-5.2,15.5-8.7c2.4-1.7,3.5-5.2,5.1-7.9c2-3.5,4.4-6.8,5.6-10.6
		c1.3-4.2,2-8.8,1.9-13.2c0-4.6-1-9.1-1.9-13.7c-0.6-2.9-0.9-6.4-2.6-8.5c-3.1-3.8-7.1-7.1-11-10.2c-2.8-2.2-5.9-4.4-9.3-5.5
		c-3.5-1.2-7.5-0.6-11.1-1.6c-7.6-2.2-15.3-3.1-22.5,0.4c-5.4,2.6-10,7-14.9,10.7c-0.3,0.2-0.2,0.9-0.3,1.3c0.4-0.2,0.7-0.4,1.1-0.6
		c2.8-1.6,5.5-3.9,8.5-4.8c5.5-1.6,11.1-2.8,16.8-3.4c3.9-0.4,8,0.1,11.9,0.8c3.1,0.6,6.1,1.9,9.1,3.2c3.9,1.7,8.4,3,11.4,5.7
		c3.5,3.1,5.9,7.4,8.3,11.5c1.4,2.5,2.4,5.6,2.5,8.5c0.1,3.2-0.8,6.5-1.6,9.6c-1,3.9-2.2,7.8-3.5,11.6
		C134.6,126.8,133.8,128.2,133.4,129z M66.2,128.2c-0.3-0.1-0.3-0.2-0.4-0.2c-0.1,0-0.2,0.1-0.2,0.2c0,0.1,0.1,0.1,0.2,0.2
		C66,128.3,66.1,128.2,66.2,128.2z M63.1,113.9c0,0.1,0,0.1,0,0.2c0,0,0.1,0,0.1,0c0,0,0-0.1,0-0.1
		C63.2,113.9,63.1,113.9,63.1,113.9z"/>
</g>
</svg>
