<?xml version="1.0" encoding="utf-8"?>
<!-- Generator: Adobe Illustrator 24.0.0, SVG Export Plug-In . SVG Version: 6.00 Build 0)  -->
<svg version="1.1" id="Capa_1" xmlns="http://www.w3.org/2000/svg" xmlns:xlink="http://www.w3.org/1999/xlink" x="0px" y="0px"
	 viewBox="0 0 206 206" style="enable-background:new 0 0 206 206;" xml:space="preserve">
<style type="text/css">
	.st0{fill:#FFFFFF;}
	.st1{fill:#3C3935;}
</style>
<g>
	<path class="st0" d="M194.1,130.3c0-9.4,0-18.9,0-28.3c0-1.8,0.3-3.5-0.8-5.3c-0.6-1-0.5-2.8,0.5-4.3c0.6-1,1.2-1.4,2.1-1.8
		c2.2-1.1,4.5,0.3,4.8,2.8c0.3,2.8,0.7,5.6,0.9,8.4c0.2,2.8,0,5.6,0,8.3c0,15.9,0.1,31.9,0,47.8c0,3.4-0.5,6.9-0.9,10.3
		c-0.4,3.2-1.8,6.1-2.8,9c-0.7,1.9-1.8,3.7-3,5.3c-5.6,7.5-12.4,13.6-21.1,17.3c-2,0.9-4.1,1.3-6.3,1.6c-8.4,1.4-16.9-0.1-25.3,1
		c-8.5,1.1-16.9,0.5-25.3,0.7c-8.5,0.2-17.2,0.7-25.6-0.2c-6.8-0.7-13.4-0.5-20.2-0.7c-6.7-0.1-13.4,0-20.1,0c-3.3,0-6.5-1.4-9.9-1
		c-3.2,0.3-6.6,0.5-9.8,0c-4.4-0.8-9.1-1.4-12.2-5.5c-0.6-0.7-1.6-1.1-2.3-1.8c-4.2-4.4-7.7-9.5-11.1-14.5c-1.1-1.6-2-3.8-1.9-5.7
		c0.4-6.4-1.1-12.7-1.1-19.1c0-19-0.7-38.1,0.2-57.1C3.8,83.1,3.5,68.6,3.8,54C5.5,48.5,4,42.8,4.9,37.3c0.7-4.7,0.7-9.5,3.5-13.8
		C12,17.9,16.1,13.2,22,10.2c1.5-0.8,3-1.8,4.5-2.6c2.7-1.3,5.3-2.6,8.5-2c6.2-1.7,12.6-0.1,18.7-1.1c8-1.2,15.9-0.6,23.9-0.7
		c8.1-0.2,16.2,0,24.3,0c5,0,10-0.5,14.9,0.1c10.4,1.4,20.9,0.2,31.3,0.9c4.5,0.3,9,1.2,13.3,2.7c4.1,1.4,8,3.3,11.7,5.6
		c0.9,0.6,1.6,1.5,2.3,2.2c1.1,1.1,2,2.6,3.3,3.2c1.7,0.7,3.7,0.8,5.6,1.1c6.5,1,11.6,4.1,14.1,10.4c0.6,1.6,0.9,3.4,1.2,5.1
		c0.4,2.3,0.8,4.7,0.9,7c0.2,2.5-0.1,5,0.1,7.4c0.4,4-0.2,7.9-1.1,11.7c-1.2,4.6-3,9.1-8.2,10.8c-0.4,0.1-0.8,0.5-1.2,0.5
		c-4.4-0.2-8.7,1.9-13.1,0.9c-4.7-1-9.5-0.2-14-1.1c-3.8-0.7-7.5-0.6-11.3-0.7c-2.3-0.1-4.2-1.4-6.6-1c-1.5,0.2-1.4,0.9-1.3,1.8
		c0.1,0.8,0.4,1.8,0.9,2.4c2.6,2.9,3.5,6.6,5.2,9.9c1.7,3.4,2.4,7.1,3.3,10.7c1,4.2,0.8,8.4,0.8,12.6c0,10.2-3.4,19.4-9.1,27.8
		c-5.7,8.2-13.4,14.3-22.6,18.3c-3.9,1.7-7.8,3-11.9,3.9c-3.2,0.7-6.3,0.5-9.5,0.7c-3.3,0.2-6.6,0.5-9.8-0.1
		c-5.8-1.1-11.5-2.8-16.6-6.1c-3.9-2.5-7.6-5.4-10.8-8.8c-2.8-3.1-5.5-6.2-7.2-10c-1.7-3.7-3.8-7-4.4-11.2c-0.4-3-1.3-5.9-1.9-9
		c-0.5-3.1-0.5-6.3-0.9-9.4c-0.2-2.1,0.8-3.7,1-5.7c0.2-1.7-0.9-3.7,0.9-5.2c0.1-6.7,3.5-12.1,6.5-17.7c0.3-0.6,0.7-1.2,1.1-1.9
		c0.2-0.3,0.4-0.7,0.6-1c-0.3-0.1-0.5-0.2-0.8-0.2c-10.4-0.2-20.9-1.5-31.3-0.9c-0.9,0-2.2-0.3-2.7,0.2c-1.3,1.2-2.6,0.6-3.9,0.7
		c-1.8,0.1-3.7-1.7-3.9-3.4c-0.2-1.5,1.9-4,3.5-3.9c3.4,0.2,6.5-1.4,9.9-1C33.6,64.3,37,64,40.5,64c7.4-0.1,14.6,1.5,22,1
		c2.3-0.1,4-0.5,5.7-2.2c4.7-4.8,10.2-8.3,16.7-10.2c1.7-0.5,3.3-1.2,5-1.5c2.3-0.5,4.7-0.8,7.1-0.9c2.3-0.2,4.7-0.3,7,0
		c7.5,0.9,15,2.2,21.9,5.7c3.4,1.7,5.1,4.2,5,8.1c0,3.9-2.1,6.1-5.3,7.5c-2.2,1-4.7,1.6-7.1,1.9c-4.5,0.5-9.1,0.8-13.6,1
		c-4.5,0.2-9,0-13.5,0c-3.3,0-6.5-1.4-9.9-1c-3.2,0.4-6.5,0.2-9.8,0c-2.5-0.1-3.9,0.8-5.4,3c-3.2,4.6-5.2,9.6-7,14.8
		c-0.7,2.1-0.9,4.3-1.3,6.4c-0.3,1.6-0.8,3.1-0.9,4.7c-0.2,1.7-0.1,3.4,0,5.1c0.6,9.1,2.8,17.9,7.6,25.6c2.4,4,5.3,8.1,9.9,10.2
		c2,2.8,5.4,3.5,8.1,5.2c2.6,1.6,5.8,1.5,8.6,2.8c0.6,0.3,1.5,0,2.3,0c3.3,0,6.5,0,9.8,0c5.4,0,10.4-1.3,15.3-3.7
		c5.7-2.8,11.2-5.9,15.7-10.5c4.9-5,8.2-10.9,10.4-17.5c1.5-4.7,1.9-9.6,2-14.5c0.1-6.7-1.9-12.6-4.2-18.7c-1.5-4-4-7.3-5.7-11.1
		c-0.6-1.3-1-2.7-1.6-4c-0.6-1.3-1.2-3-0.6-3.8c1.1-1.4,2.2-3,4.5-3.5c4-0.8,6.6-1.1,10.5-0.1c1,0.3,2.1,0.3,3.2,0.2
		c6.7-0.3,13.4,1.6,20.1,0.9c2.4,1.2,5,1,7.5,0.9c2.7-0.1,5.3-0.5,8-0.9c1.5-0.2,3.7-3.1,3.8-5.1c0.1-3.3,1.4-6.4,1-9.8
		c-0.3-3.2,0.2-6.5-0.2-9.7c-0.4-3-1.5-5.9-2.3-8.8c-0.9-3.3-4-3.4-6.4-4.6c-0.7-0.3-1.5-0.1-1.5,1.1c0,1.9-0.1,3.7,0,5.6
		c0.4,7.8-4.5,12.8-11,15.6c-3.4,1.5-9.1,0.9-13.7,0.2c-5.3-0.9-9-3.5-11.6-7.9c-3.1-5.4-3-9.8,0.6-14.8c2.7-3.6,6.7-5.3,10.9-6.1
		c2.1-0.5,4.3-1.6,6.6-1c0.4,0.1,0.9-0.2,1.2-0.4c0.4-0.2,0.7-0.6,1-1c-0.2-0.2-0.5-0.3-0.7-0.5c-4.6-2.3-9.3-3.7-14.4-4.8
		c-5.1-1.1-10-0.6-15-0.8c-11.2-0.4-22.4-0.8-33.7-0.9c-11.2-0.2-22.4,0.1-33.6-0.1c-10.2-0.2-20.2,1.6-30.4,1
		c-1.2-0.1-2.5,0.6-3.8,0.9c-1.3,0.3-2.6,0.1-4,0.6c-6.2,2-11.1,5.9-15,10.7c-2,2.4-4,5.5-3.4,9.2c-1.8,5.4-0.2,10.9-1,16.3
		c-1.1,6.8-0.7,13.7-0.8,20.5c-0.1,7,0.7,14-0.2,20.9c-1.4,10.9-0.5,21.7-0.7,32.6c-0.2,10.8,0.1,21.7-0.1,32.5
		c-0.1,2.9,1.1,5.6,1,8.4c-0.1,2.8-0.1,5.6,0,8.3c0,1,0.4,2.1,0.9,2.8c3.9,4.9,6.9,10.5,11.8,14.7c2.4,2,5,3.2,7.9,3.4
		c11.1,0.5,22.1,0.8,33.2,1c6.1,0.1,12.1-0.2,18.2,0.1c7.8,0.3,15.6,1.1,23.4,0.9c7.8-0.2,15.6-0.3,23.3,0c5.2,0.2,10.3-1.1,15.5-1
		c5.3,0,10.6,0.1,15.9,0c1.4,0,2.8-0.6,4.3-0.9c1.5-0.3,2.9,0,4.4-0.5c3.6-1.2,6.3-3.7,9.3-5.7c3-2,5-5,7.5-7.5
		c3.2-3.3,5.6-10.1,6.4-14.6c1.1-5.9,0.6-11.8,0.8-17.7C194.2,142,194.1,136.1,194.1,130.3z M175.7,31.8c-0.1,0-0.2,0-0.2,0
		c0-1.1,0-2.2,0-3.2c-0.1-1.9-0.8-2.4-2.8-2.7c-3.5-0.5-7,0.5-10.3,1.1c-2.4,0.5-5.1,1-7.3,2.5c-2.1,1.5-3.7,5.1-2.7,7.2
		c0.6,1.4,4.2,4.2,5.8,4.9c3.2,1.4,6.7,1.4,9.8,0.7c2.8-0.6,6-1.9,6.9-5.3C175.4,35.4,175.4,33.6,175.7,31.8z M101.3,66.8
		c4.9,0.8,10.7-0.8,16.7-1c1.4,0,2.8-0.7,4.2-1.2c1.1-0.4,1.2-1.4,0.3-1.9c-0.4-0.2-0.8-0.4-1.2-0.6c-5.5-3.5-11.9-3.7-18.1-4.5
		c-3.7-0.5-7.5-0.2-11.3,0.7c-5.3,1.3-10.1,3.4-14.6,6.4c-0.3,0.2-0.4,0.4-0.7,0.6c0.2,0.2,0.4,0.5,0.6,0.5c2.5,0,5-0.1,7.4,0.1
		c2.5,0.2,5,0.7,7.5,0.9C94.9,66.9,97.5,66.8,101.3,66.8z"/>
</g>
</svg>
