<?xml version="1.0" encoding="utf-8"?>
<!-- Generator: Adobe Illustrator 24.0.0, SVG Export Plug-In . SVG Version: 6.00 Build 0)  -->
<svg version="1.1" id="Capa_1" xmlns="http://www.w3.org/2000/svg" xmlns:xlink="http://www.w3.org/1999/xlink" x="0px" y="0px"
	 viewBox="0 0 302 378.2" style="enable-background:new 0 0 302 378.2;" xml:space="preserve">
<style type="text/css">
	.st0{fill:#FFFFFF;}
</style>
<g>
	<g>
		<path class="st0" d="M615.16,4.75l-0.08-0.14c-0.22-0.34-0.45-0.67-0.69-1l-0.19-0.22c-0.3-0.3-0.63-0.58-1.08-0.95
			c-0.61-0.42-1.27-0.77-2.1-1.11c-2.62-1.02-5.17-1.24-7.54-1.32c-2.28-0.06-4.59,0.07-7.04,0.39c-3.96,0.48-8.2,1.39-13.37,2.85
			c-4.17,1.2-8.46,2.65-12.77,4.31c-7.92,3.12-15.81,6.92-24.12,11.63c-8.61,4.84-16.73,10.07-24.97,15.46
			c-3.59,0.47-7.79,0.98-12.02,1.23c-4.63,0.29-8.82,0.27-12.83-0.06c-1.22-0.08-2.42-0.23-3.69-0.39c-0.92-0.12-1.84-0.24-2.8-0.33
			c-1.67-0.16-3.32-0.28-4.97-0.4l-1.67-0.12c-8.95-0.66-17.75-1.56-26.13-2.67c-7.57-0.99-15.84-2.28-26.03-4.03
			c-1.03-0.17-2,0.5-2.21,1.52l-0.13,0.83l0.9,1.3l0.72,0.15c9.14,1.92,17.67,3.49,26.08,4.81c9.45,1.49,18.08,2.57,26.37,3.28
			l1.62,0.15c1.64,0.15,3.28,0.29,4.9,0.48c0.85,0.1,1.72,0.22,2.6,0.35c1.31,0.19,2.66,0.38,3.99,0.49
			c4.24,0.42,8.68,0.51,13.59,0.28c0.43-0.02,0.87-0.04,1.32-0.07c-3.15,2.04-6.28,4.04-9.42,5.99c-2.35,1.45-4.71,2.87-7.08,4.27
			c-3.55-0.58-6.82-1.01-9.95-1.32c-1.47-0.17-2.95-0.25-4.38-0.33c-0.77-0.04-1.55-0.09-2.37-0.15c-2.3-0.11-4.59-0.13-6.73-0.13
			c-4.84,0.02-9.21,0.19-13.38,0.5c-1.84,0.14-4.27,0.35-6.74,0.73c-1.35,0.21-2.46,0.43-3.65,0.75c-0.62,0.18-1.65,0.47-2.53,1.51
			c-0.52,0.65-1.05,1.79-0.68,3.59c1.15,4.77,4.73,8.99,9.6,11.3c2.32,1.08,4.72,1.72,7.16,1.91c2.32,0.16,4.75-0.03,7.22-0.58
			c4.79-1.04,9.12-3.15,12.81-5.05c4.35-2.26,8.83-4.71,13.34-7.28c7.74,1.42,15.54,3.36,23.1,5.25c5.1,1.27,10.35,2.58,15.61,3.74
			c-0.11,0.07-0.23,0.15-0.34,0.23c-2.48,1.66-4.94,3.31-7.44,4.91c-4.16,2.66-7.69,4.69-11.13,6.39c-2.81,1.4-5.81,2.74-9.14,4.09
			c-2.41-0.51-4.57-0.89-6.61-1.16c-5.11-0.66-9.71-0.69-14.04-0.08c-2.46,0.35-4.83,0.91-7.08,1.69l-1.72,0.65l-1.69,0.75
			l-0.58,0.29c-0.89,0.45-1.8,0.91-2.67,1.57c-1.57,0.98-3.3,3.26-3.37,5.95c-0.06,2.08,0.92,3.93,2.76,5.22l0.19,0.11
			c1.2,0.63,2.32,0.7,3.29,0.68c0.45-0.02,0.84-0.05,1.23-0.08l0.62-0.05c1.17-0.11,2.34-0.24,3.48-0.43
			c4.89-0.76,9.47-2.1,13.32-3.33c4.85-1.56,8.86-2.96,12.64-4.4c0.52-0.2,1.04-0.4,1.56-0.61c1.29,0.28,2.57,0.58,3.85,0.89
			c1.15,0.28,2.31,0.57,3.47,0.85c3.09,0.77,6.28,1.56,9.49,2.22c1.47,0.31,2.97,0.58,4.49,0.82c-1.83,1.16-3.67,2.32-5.53,3.45
			c-3.8,2.35-7.62,4.48-11.34,6.32c-3.87,1.87-7.9,3.42-11.99,4.59l-0.21,0.08c-0.88,0.36-1.38,1.33-1.13,2.27
			c0.25,0.97,1.21,1.58,2.2,1.42c0.05-0.01,0.11-0.02,0.16-0.03c4.35-1.13,8.65-2.65,12.78-4.52c3.9-1.81,7.9-3.91,11.87-6.22
			c2.15-1.24,4.27-2.51,6.4-3.78c1.49-0.89,2.98-1.78,4.48-2.66l0.02,0c0.44,0.04,0.88,0.08,1.32,0.11
			c4.74,0.3,9.32,0.28,13.62-0.08c2.47-0.2,4.68-0.45,6.78-0.77l0.49-0.08c0.96-0.15,1.9-0.3,2.9-0.5c1.12-0.23,2.59-0.61,4-1.46
			c0.77-0.48,1.42-1.03,1.96-1.67c0.55-0.67,0.98-1.43,1.27-2.25c0.71-1.95,0.52-4.05-0.48-5.59c-0.95-1.53-2.66-2.57-4.68-2.85
			c-0.67-0.1-1.37-0.14-2.15-0.11c-0.45,0.02-0.87,0.07-1.29,0.13l-0.54,0.07c-4.25,0.45-8.65,1.77-13.43,4.01
			c-2.83,1.34-5.78,2.94-9.27,5.02c-3.84-0.35-7.67-0.94-11.4-1.75c-2.82-0.61-5.7-1.35-8.51-2.07c0.43-0.21,0.86-0.41,1.28-0.62
			c3.67-1.81,7.41-3.94,11.78-6.73c2.73-1.74,5.42-3.53,8.09-5.31c1.87-1.25,3.73-2.49,5.6-3.71c7.14,1.24,13.54,1.91,19.5,2.03
			c1.68,0.1,3.35,0.03,4.97-0.03c0.63-0.02,1.25-0.05,1.88-0.06c2.09-0.06,4.36-0.27,6.94-0.66c5.56-0.82,10.03-2.55,13.63-5.15
			c0.36-0.25,0.71-0.53,1.05-0.82l0.76-0.65c0.38-0.35,0.76-0.71,1.2-1.16l0.38-0.42c0.29-0.32,0.58-0.63,0.92-1.08
			c0.43-0.59,0.96-1.41,1.28-2.59c0.18-0.71,0.23-1.38,0.14-2.04c-0.1-0.83-0.44-1.66-0.96-2.35c-0.43-0.55-0.96-1-1.63-1.38
			c-0.44-0.24-0.76-0.38-1.08-0.51l-0.65-0.26c-0.88-0.36-1.79-0.73-2.7-0.99c-4.26-1.4-9.07-1.94-14.3-1.63
			c-8.45,0.62-17.3,3.53-26.29,8.62c-2.27,1.26-4.65,2.69-7.45,4.48c-1.19-0.21-2.37-0.44-3.55-0.67
			c-5.56-1.12-11.22-2.44-16.7-3.72c-6.02-1.41-12.21-2.86-18.43-4.07c0.86-0.52,1.72-1.04,2.58-1.56
			c4.85-2.94,9.69-6.06,14.36-9.07l2.75-1.77c2.6-0.29,5.2-0.62,7.79-0.94c2.41-0.3,4.82-0.61,7.22-0.88
			c1.37-0.15,2.75-0.29,4.13-0.43c2.98-0.3,6.05-0.61,9.07-1.05c3.8-0.52,7.85-1.17,13.16-2.1l12.98-2.29
			c2.16-0.36,4.31-0.71,6.46-1.03l0.58-0.08c2.01-0.29,4.08-0.6,6.13-1.03c4.96-1.05,9.28-2.45,13.2-4.27
			c2.13-0.97,4.24-2.21,6.29-3.73c2.18-1.71,3.9-3.48,5.25-5.41c1.72-2.48,2.7-5.04,2.94-7.69C616.21,7.71,615.89,6.12,615.16,4.75z
			 M581.41,25.53l-0.61,0.09c-2.2,0.34-4.39,0.71-6.59,1.09l-13,2.38c-5.22,0.95-9.2,1.62-12.93,2.16
			c-2.92,0.44-5.78,0.75-8.81,1.08c-1.4,0.15-2.8,0.3-4.21,0.47c-0.83,0.1-1.65,0.2-2.47,0.3c5.14-3.15,10.5-6.32,15.96-9.26
			c8.19-4.45,15.91-8.01,23.59-10.89c9.74-3.52,17.63-5.56,24.85-6.43c2.12-0.27,4.18-0.37,6.11-0.32c2.35,0.08,4.07,0.37,5.4,0.91
			c0.36,0.14,0.59,0.27,0.73,0.36c0.05,0.05,0.1,0.09,0.15,0.13c0.04,0.06,0.08,0.12,0.12,0.18c0.08,0.21,0.2,0.64,0.17,1.42
			c-0.14,1.41-0.8,3-1.85,4.48c-0.97,1.37-2.3,2.72-3.9,3.97c-1.67,1.21-3.38,2.21-5.12,2.99c-3.68,1.68-7.67,2.99-11.88,3.89
			C585.25,24.95,583.39,25.23,581.41,25.53z M451.45,55.77c2.31-0.32,4.63-0.49,6.39-0.6c4.05-0.25,8.31-0.35,13.01-0.3
			c2.08,0.03,4.31,0.08,6.44,0.21c0.78,0.07,1.57,0.13,2.36,0.18c1.42,0.1,2.76,0.2,4.14,0.37c1,0.11,2.01,0.24,3.05,0.38
			c-2.88,1.61-5.6,3.07-8.22,4.41c-4.27,2.17-7.89,3.78-11.72,4.59c-2.04,0.45-4.02,0.59-5.89,0.45c-1.86-0.15-3.72-0.66-5.49-1.5
			c-1.86-0.93-3.38-2.07-4.51-3.39c-1.1-1.26-1.93-2.75-2.38-4.29C449.46,56.09,450.38,55.92,451.45,55.77z M477.81,90.19
			c-1.05,0.17-2.12,0.31-3.13,0.41c0.37-0.22,0.81-0.46,1.25-0.68l3.26-1.43c1.8-0.65,3.74-1.13,5.78-1.44
			c2.01-0.3,4.11-0.45,6.32-0.43c-0.53,0.18-1.05,0.35-1.57,0.52C486.45,88.18,482.16,89.47,477.81,90.19z M558.7,84.58
			c0.2-0.02,0.41-0.04,0.62-0.07c0.28-0.03,0.57-0.07,0.83-0.07c0.42-0.01,0.8,0.02,1.15,0.08c0.59,0.1,0.82,0.29,0.89,0.41
			c0.03,0.06,0.07,0.33-0.07,0.72c-0.09,0.22-0.21,0.43-0.35,0.59c-0.13,0.15-0.32,0.3-0.56,0.45c-0.97,0.57-2.49,0.77-4.1,1
			c-0.43,0.06-0.85,0.12-1.24,0.18c-1.96,0.27-4.04,0.47-6.36,0.61c-1.36,0.08-2.74,0.14-4.13,0.16c0.51-0.25,1.01-0.48,1.51-0.71
			C551.18,86,555.04,84.9,558.7,84.58z M550.71,62.9L550.71,62.9c8.1-4.66,15.99-7.31,23.41-7.92c4.37-0.29,8.35,0.13,11.9,1.27
			c0.56,0.15,1.12,0.36,1.7,0.6l-0.23,0.27c-0.23,0.24-0.48,0.47-0.72,0.7l-0.66,0.58c-0.21,0.17-0.42,0.35-0.66,0.52
			c-2.68,1.96-6.27,3.32-10.67,4.04c-0.05,0.01-0.1,0.02-0.16,0.03c-2.32,0.36-4.35,0.57-6.19,0.63c-0.69,0.02-1.38,0.05-2.08,0.08
			c-1.48,0.07-2.88,0.14-4.36,0.07c-3.64-0.04-7.43-0.29-11.48-0.75C550.58,62.98,550.64,62.94,550.71,62.9z"/>
		<g>
			<path class="st0" d="M473.77,213.69c5.18-0.24,5.21-8.33,0-8.09c-18.89,0.86-39.41,4.37-58.19,2.66
				c-0.82-0.07-2.15,0.3-3.24,0.36c-0.18-0.61-0.56-1.46-1.29-2.73c-5.33-9.15-1.07-27.65-1.28-38.08
				c-0.49-25-4.25-50.16-6.65-75.04c-0.5-5.13-8.59-5.19-8.09,0c2.1,21.76,4.78,43.56,6.22,65.38c1.23,18.68-2.14,37.46,3.89,55.52
				c0.55,1.63,2.07,3.05,3.9,2.97C430.6,215.67,452.19,214.68,473.77,213.69z"/>
			<path class="st0" d="M425.54,113.09c8.26-1.25,36.78-7.67,41.97-0.96c2.55,3.29,1.79,13.62,1.44,20.08
				c-16.2,1.59-45.79,7.48-42.92,28.46c1.92,14.03,16.93,23.13,29.01,27.5c6.37,2.31,15.85,5.9,20.05-1.1
				c4.51-7.52,1.88-24.61,1.94-33.07c0.1-13.44,1.78-29.46-1.5-42.64c-4.34-17.45-39.37-7.99-52.13-6.06
				C418.26,106.07,420.43,113.86,425.54,113.09z M468.72,166.44c-0.11,3.85-0.23,7.7-0.53,11.54c-0.07,0.95,0.06,4.43-0.47,5.01
				c-0.03,0.03-0.04,0.04-0.06,0.07c-7.57,3.08-25.43-10.14-29.35-15.14c-14.88-19.01,15.65-25.99,30.56-27.6
				C468.98,149.03,468.97,157.74,468.72,166.44z"/>
			<path class="st0" d="M696.31,272.2c0.03-10.91,1.34-23.91-1.34-34.56c-4.18-16.61-33.92,0.18-43.48,4.46
				c-4.74,2.12-0.63,9.1,4.08,6.98c4.66-2.09,9.4-4.01,14.19-5.77c3.93-1.44,7.93-2.51,11.89-3.81c3.55-1.16,4.37-1.58,5.44-0.13
				c2.61,3.53,0.95,15.84,1.03,20.05c0.03,1.34,0.02,2.68,0.04,4.02c-14.14-1.46-40.05-1.4-37.43,17.59
				c1.6,11.58,13.36,19.33,23.26,23.42c5.84,2.41,16.74,7.05,20.61-0.34C698.71,296.22,696.29,280.7,696.31,272.2z M688.03,285.93
				c-0.1,3.37-0.29,6.73-0.46,10.09c-0.05,0.92,0.09,2.59-0.3,3.44c-0.13,0.28-0.23,0.49-0.31,0.67c-6.21,1.47-19.9-8-23.2-11.52
				c-16.67-17.74,13.49-18.29,24.47-17.12C688.22,276.31,688.17,281.12,688.03,285.93z"/>
			<path class="st0" d="M638.01,129.73c8.02-1.3,38.24-8.85,42.45-4.36c1.9,2.02,2.66,6.56,3.01,11.27
				c-16.62,6.17-48.68,21.31-39.39,43.72c4.56,11,42.78,36.05,50.08,18.24c3.71-9.05-0.11-25.42-0.81-34.94
				c-0.89-12.1-0.06-29.08-5.09-40.44c-3.4-7.69-9.7-6.4-17.56-5.82c-11.66,0.86-23.31,2.67-34.84,4.54
				C630.74,122.76,632.91,130.55,638.01,129.73z M657.31,184.73c-19.52-17.32,10.7-33.37,26.52-39.6c0.05,1.64,0.1,3.07,0.2,4.13
				c1.03,10.38,1.8,20.8,2.23,31.22c0.15,3.67,0.2,7.33,0.26,10.99c0.05,3.1-0.78,4.42-0.18,4.39
				C678.66,198.47,662.22,189.08,657.31,184.73z"/>
			<path class="st0" d="M530.11,213.12c17.8,2.18,25.34-0.45,25.21-18.5c-0.15-19.88-2.41-39.88-4.59-59.63
				c-0.56-5.12-8.66-5.17-8.09,0c1.4,12.72,2.6,25.46,3.52,38.22c0.6,8.29,1.35,16.75,1.06,25.07c-0.34,9.78-6.66,7.92-15.56,6.91
				c-8.75-0.99-21.39-2.85-28.51-8.4c-6.99-5.44-5.41-15.68-4.98-23.75c0.79-14.8,2.97-29.6,5.68-44.17
				c0.94-5.09-6.85-7.27-7.8-2.15c-3.51,18.89-7.25,39.12-6.1,58.38C491.21,206.25,511.65,210.86,530.11,213.12z"/>
			<path class="st0" d="M567.92,208.78c0.28,5.18,8.37,5.21,8.09,0c-0.75-13.87-1.28-27.75-1.64-41.64
				c-0.1-3.61-0.15-7.23-0.22-10.84c8.55,7.71,17.19,15.33,25.99,22.75c8.87,7.48,21.52,21.49,33.45,23.85
				c5.08,1,7.26-6.79,2.15-7.8c-12.49-2.46-26.35-18.7-35.55-26.59c-6.96-5.98-13.8-12.09-20.61-18.24
				c17.53-6.74,37.28-16.62,47.3-32.09c4.86-7.5,7.59-19.03,1.17-26.63c-6.82-8.07-20.9-6.44-29.98-4.74
				c-10.37,1.94-24.65,6.12-29.35,16.73c-3.86,8.72-2.64,21.06-2.77,30.31C565.58,158.82,566.58,183.86,567.92,208.78z
				 M575.91,107.56c4.64-10.39,23.79-14.63,34.16-13.88c19.68,1.42,13.48,18.12,3.27,27.62c-10.8,10.05-25.38,17.21-39.32,22.43
				c-0.01-3.29-0.05-6.58,0-9.87C574.13,126.2,572.72,114.72,575.91,107.56z"/>
			<path class="st0" d="M653.54,303.6c-10.68-0.88-23.47-11.5-32.27-16.97c-4.88-3.04-9.67-6.21-14.48-9.37
				c13.62-5.08,28.94-12.57,35.89-24.55c11.45-19.75-10.36-29.11-26.91-26.96c-24.64,3.2-25.9,17.65-24.83,38.89
				c1.04,20.62,3.51,41.22,6.27,61.67c0.69,5.13,8.49,2.95,7.8-2.15c-1.36-10.08-2.83-22.76-3.92-33.69c-0.24-2.42-0.57-5-0.92-7.64
				c15.5,11.05,35.36,27.37,53.38,28.86C658.73,312.12,658.7,304.02,653.54,303.6z M598.84,246.79
				c2.33-10.89,13.46-13.57,23.89-13.41c16.8,0.25,16.89,13.15,6.75,22.02c-8.49,7.43-20.02,12.44-30.74,16.15
				C597.76,262.98,597.24,254.26,598.84,246.79z"/>
			<path class="st0" d="M500.2,227.44c-10.25-1.8-33.12-1.17-37.87,9.62c-0.83,1.88-1.43,3.94-1.89,6.11
				c-0.63-1.73-1.33-3.39-2.1-4.95c-5.47-11.01-25.74-6.71-35.44-3.3c-25.83,9.07-13.14,54.25-9.4,74.48
				c0.94,5.11,8.74,2.95,7.8-2.15c-1.68-9.12-2.97-18.33-3.84-27.57c-1.34-14.34-5.16-32.96,11.45-38.08
				c3.64-1.12,18.56-4.02,21.51-1.9c1.68,1.21,2.33,10.64,2.84,12.71c2.57,10.42,5.38,20.8,8.2,31.16c1.16,4.28,8.29,3.59,7.94-1.08
				c-0.8-10.73-1.36-21.64-0.74-32.39c0.44-7.61,0.3-9.37,6.5-12.19c5.04-2.29,23.98-4.87,27.51-0.58
				c2.56,3.11,2.63,12.95,3.18,16.56c1.37,8.92,2.45,17.9,3.45,26.87c1.71,15.25,3.47,30.65,3.66,46c0.07,5.2,8.16,5.22,8.09,0
				c-0.29-22.22-3.21-44.63-6.21-66.62C513.28,248.61,514.52,229.95,500.2,227.44z"/>
			<path class="st0" d="M558.24,229.73c-0.57-0.17-1.1-0.2-1.6-0.15c-20.27-2.16-33.33,15.24-35.1,34.35
				c-1.57,16.96,7.47,29.13,24.09,32.73C587.65,305.75,596.62,241.08,558.24,229.73z M547.78,288.85
				c-9.15-1.78-16.54-6.88-18.07-16.48c-2.51-15.76,7.62-37.76,26.38-34.85C584.54,245.94,579.52,295.04,547.78,288.85z"/>
		</g>
	</g>
	<g>
		<path class="st0" d="M490.27,377.25v-0.35h0.42v-0.42h0.42v-1.19l0.42-0.14v-11.62h-0.42v-0.81h-0.84v-0.84h-3.86v0.46h-0.39v0.39
			l-0.28,0.18c0,0.07-0.07,0.18-0.07,0.28h-0.49v12.46h0.42l0.11,0.28c0.11,0,0.21,0.04,0.32,0.07v0.49h1.19v1.47h-5.13v-0.42h-0.42
			v-0.63h0.42v-0.39l0.25-0.18c0-0.07,0.04-0.18,0.07-0.28h0.46v-2.46h0.46v-8.78h-0.46v-1.3h-0.35v-0.35h-0.42v-0.84h-0.42v-0.46
			h-3.44v0.46l-0.32,0.18c0,0.07-0.07,0.14-0.07,0.21h-0.91v0.46h-0.35v0.35l-0.42,0.18v11.94h0.42l0.11,0.28
			c0.04,0,0.18,0,0.25,0.04v0.53h1.69l0.11,0.28c0.11,0,0.21,0.04,0.32,0.07v0.7l-0.28,0.18c0,0.04-0.04,0.07-0.11,0.25h-5.16v-0.42
			h-0.84v-1.02l0.21-0.18c0-0.07,0.04-0.18,0.07-0.28h0.56v-0.39l0.21-0.14c0.04-3.9,0.14-8.46,0.18-12.36h-0.39v-0.46H471v-0.84
			h-0.46v-0.25H471v-0.77h1.23v-0.42h2.11v-0.35h1.05v0.35h0.77l0.11,0.28l0.91,0.14v-0.42h1.61v-0.35h3.51v0.35h0.77l0.18,0.28
			c0.25,0,0.42,0.11,0.7,0.11v0.46h1.83v-0.42h0.84v-0.42h1.61v-0.35h3.12v0.35h0.81l0.11,0.28c0.07,0,0.25,0.04,0.32,0.07v0.49
			h0.42v0.81h0.32l0.18,0.25c0.11,0,0.21,0.04,0.32,0.07v1.33h0.39v6.81l-0.39,0.18v4.91h0.39l0.11,0.28c0.25,0,0.53,0.11,0.74,0.11
			v0.46h1.19v1.47h-5.55v-0.42h-0.42l-0.14-0.25c-0.04,0-0.14,0-0.25-0.04c0.07-0.04,0.18-0.04,0.25-0.04L490.27,377.25z
			 M479.04,377.11l0.35,0.14L479.04,377.11z M480.83,360.08h-0.14v-0.67l0.25,0.28L480.83,360.08z M487.22,377.11l0.42,0.14h-0.42
			V377.11z M489.85,377.07v0.04l-0.18,0.14L489.85,377.07z M496.66,377.25h-0.42v-0.14L496.66,377.25z"/>
		<path class="st0" d="M506.65,359.56h4.46l0.84,0.42h0.53v0.39h0.81l0.14,0.25c0.11,0,0.21,0.04,0.32,0.07v0.53h0.39l0.14,0.25
			c0.04,0,0.14,0,0.25,0.04h0.07v0.91h0.35v3.83h-0.35v9.34h2.32v-0.39h0.53v0.39h0.39l0.18,0.28c0.07,0,0.14,0.04,0.25,0.07v0.6
			l-0.28,0.18c0,0.04-0.04,0.11-0.04,0.14l-1.79,0.07v0.39h-1.19v0.46h-2.11v-0.46h-0.49l-0.18-0.21c-0.14,0-0.49-0.14-0.6-0.14
			v-0.46h-1.54v0.42h-1.19v0.39h-1.72v0.46h-4.95v-0.46h-0.81l-0.21-0.21c-0.21,0-0.46-0.14-0.6-0.14v-0.46h-0.84v-0.39h-0.46v-0.84
			h-0.35v-0.77h-0.42v-2.21h0.42v-0.77h0.35v-0.84h0.46v-0.46l0.21-0.14c0-0.07,0-0.14,0.04-0.25h0.95v-0.42h0.84V369h0.81v-0.42
			h1.23v-0.42h1.65v-0.42h4.91v-0.35h1.23v-0.46h0.42v-0.39l0.39-0.14v-3.9h-0.42l-0.18-0.21c-0.04,0-0.11-0.04-0.14-0.04l-0.07-0.6
			h-0.42l-0.18-0.21c-0.18,0-0.46-0.14-0.67-0.14l-0.14-0.46h-3.86v0.42h-0.81v0.39h-0.81v0.49l-0.25,0.18
			c0,0.04-0.07,0.11-0.07,0.18h-0.53v1.23h-0.35v0.49l-0.32,0.18c0,0.21-1.09,0.21-1.44,0.21v-0.42h-0.39l-0.21-0.28
			c-0.04,0-0.07,0.04-0.11,0.04c-0.11,0-0.14-1.26-0.14-1.54h0.46v-0.81h0.81v-0.39h0.81v-0.46h0.81v-0.39h0.81v-0.39h2.07V359.56z
			 M511.57,373.53h0.42v-4.04h-0.42l-0.21-0.42h-6.25v0.42h-1.26v0.42h-0.81v0.42h-0.81v0.46l-0.28,0.18c0,0.04,0,0.07-0.04,0.14
			h-0.46v0.88l-0.32,0.14l-0.14,2.21h0.46v0.84h0.77v0.39h0.81l0.18,0.28c0.7,0,1.47,0.14,2.28,0.14l0.14,0.25l1.02,0.14v-0.39h2.07
			v-0.42h0.84v-0.39h0.77v-0.42h0.84v-0.42h0.39V373.53z M507.6,367.74h0.28v-0.42l-0.28-0.46V367.74z"/>
		<path class="st0" d="M527.52,359.56h4.6l0.18,0.28c0.32,0,0.7,0.14,1.05,0.14v0.39h0.77l0.14,0.25c0.11,0,0.21,0.04,0.32,0.07
			v0.53h0.39l0.14,0.25c0.04,0,0.14,0,0.21,0.04v0.49h0.46v0.84h0.39v2.07h0.46V365l-0.32,0.18c0,0.25-0.11,0.42-0.11,0.63h-0.42
			v0.42h-1.26l-0.21-0.25c-0.18,0-0.53-0.14-0.63-0.14v-0.88h-0.46v-2.46h-0.39l-0.18-0.21c-0.04,0-0.11-0.04-0.14-0.04l-0.07-0.6
			h-1.3l-0.14-0.39h-3.86v0.39h-0.77v0.46h-0.84v0.42l-0.25,0.18c0,0.04-0.04,0.11-0.04,0.14l-0.56,0.07v0.39h-0.35v0.46l-0.32,0.14
			c-0.04,0.11-0.07,0.14-0.07,0.28h-0.46v0.77l-0.28,0.21c0,0.18-0.04,0.39-0.07,0.56l-0.11,0.49h-0.35v5.27h0.35v1.19h0.46v0.35
			h0.39v0.88h0.46l0.18,0.28c0.04,0,0.11,0,0.18,0.04v0.53h0.84l0.18,0.28c0.25,0,0.46,0.11,0.67,0.11l0.14,0.25
			c-0.04,0-0.04,0-0.04,0s1.54,0.18,2,0.18l0.18,0.42h2.95v-0.42h2.46v-0.39h0.81v-0.42h1.19v-0.42h1.44l0.18,0.28
			c0.04,0,0.11,0,0.18,0.04v0.6h-0.35v0.46l-0.35,0.18c0,0.04-0.04,0.11-0.04,0.14l-0.95,0.07v0.39h-1.19v0.42h-0.84v0.39h-2v0.46
			h-1.26v0.39h-4.21l-0.18-0.21c0.04,0,0.04,0,0.04,0s-1.23-0.18-1.47-0.18v-0.46h-1.3l-0.18-0.21c-0.07,0-0.11-0.04-0.14-0.04
			v-0.56h-0.42v-0.39h-0.42v-0.42h-0.35l-0.21-0.21c-0.04,0-0.07,0.04-0.11,0.04s-0.04-0.04-0.07-0.04l-0.07-0.63h-0.39v-0.81h-0.46
			v-0.88h-0.39v-1.19h-0.46v-1.19h-0.35v-2.18h0.35v-2.46h0.46v-0.77l0.21-0.18c0-0.18,0.14-0.53,0.14-0.67h0.49v-0.84l0.21-0.14
			c0-0.07,0.07-0.21,0.07-0.28h0.56v-0.42h0.35v-0.42h0.42v-0.42l0.25-0.14c0-0.07,0-0.14,0.04-0.25h0.49v-0.39h0.84v-0.46h0.42
			v-0.39h1.23v-0.39h1.26V359.56z"/>
		<path class="st0" d="M555.44,359.24h0.53v0.35h1.65l0.21,0.28c0.18,0,0.42,0.11,0.63,0.11v0.46h0.39l0.18,0.28
			c0.07,0,0.14,0.04,0.25,0.07v1.44l-0.28,0.18c0,0.04,0,0.07-0.04,0.14h-0.49v0.42h-3.02v-0.42h-1.23v-0.35h-1.09v0.35h-1.61v0.42
			h-0.84v0.42h-0.81v0.46l-0.28,0.18c0,0.04-0.04,0.18-0.07,0.25h-0.49v0.46l-0.28,0.18c0,0.04,0,0.07-0.04,0.14h-0.56v0.49
			l-0.28,0.18c0,0.04-0.07,0.11-0.07,0.18h-0.46v9.34h0.39l0.18,0.28c0.07,0,0.14,0.04,0.25,0.07v0.49h6.18l0.14,0.25
			c0.11,0,0.18,0.04,0.28,0.07v0.98l-0.28,0.21c0,0.28-2.88,0.25-3.51,0.25v-0.46h-1.09v0.46h-7.93v-0.46h-0.39l-0.18-0.21
			c-0.04,0-0.07,0.04-0.11,0.04c-0.11,0-0.14-0.49-0.14-0.7h0.46v-0.42h2v-0.42h0.84v-0.42l0.21-0.14c0-0.18,0.14-0.49,0.14-0.63
			h0.46v-7.37h-0.21l0.21-0.04v-1.16h-0.42v-3.33h-0.39v-0.35h-0.84v-0.46h-1.97v0.46h-1.69v-0.46h-0.42v-0.88h0.42v-0.42h2.39
			v-0.42h2.49v-0.42h1.33v0.84h0.39l0.18,0.28c0.07,0,0.14,0.04,0.25,0.07v1.26h0.39v0.84h1.58v-0.42h0.84v-0.42l0.21-0.14
			c0-0.07,0.07-0.21,0.07-0.28h0.56v-0.35h0.77v-0.42h0.84v-0.42h0.81v-0.42h0.84v-0.42h1.58V359.24z M539.92,363v-0.81h-0.35v0.42
			L539.92,363z M554.73,377.21h0.6v-0.07l-0.6-0.18V377.21z"/>
		<path class="st0" d="M568.77,359.56h4.46l0.84,0.42h0.53v0.39h0.81l0.14,0.25c0.11,0,0.21,0.04,0.32,0.07v0.53h0.39l0.14,0.25
			c0.04,0,0.14,0,0.25,0.04h0.07v0.91h0.35v3.83h-0.35v9.34h2.32v-0.39h0.53v0.39h0.39l0.18,0.28c0.07,0,0.14,0.04,0.25,0.07v0.6
			l-0.28,0.18c0,0.04-0.04,0.11-0.04,0.14l-1.79,0.07v0.39h-1.19v0.46h-2.11v-0.46h-0.49l-0.18-0.21c-0.14,0-0.49-0.14-0.6-0.14
			v-0.46h-1.54v0.42h-1.19v0.39h-1.72v0.46h-4.95v-0.46h-0.81l-0.21-0.21c-0.21,0-0.46-0.14-0.6-0.14v-0.46h-0.84v-0.39h-0.46v-0.84
			h-0.35v-0.77h-0.42v-2.21h0.42v-0.77h0.35v-0.84h0.46v-0.46l0.21-0.14c0-0.07,0-0.14,0.04-0.25h0.95v-0.42h0.84V369h0.81v-0.42
			h1.23v-0.42h1.65v-0.42h4.91v-0.35h1.23v-0.46h0.42v-0.39l0.39-0.14v-3.9h-0.42l-0.18-0.21c-0.04,0-0.11-0.04-0.14-0.04l-0.07-0.6
			h-0.42l-0.18-0.21c-0.18,0-0.46-0.14-0.67-0.14l-0.14-0.46h-3.86v0.42h-0.81v0.39h-0.81v0.49l-0.25,0.18
			c0,0.04-0.07,0.11-0.07,0.18h-0.53v1.23h-0.35v0.49l-0.32,0.18c0,0.21-1.09,0.21-1.44,0.21v-0.42h-0.39l-0.21-0.28
			c-0.04,0-0.07,0.04-0.11,0.04c-0.11,0-0.14-1.26-0.14-1.54h0.46v-0.81h0.81v-0.39h0.81v-0.46h0.81v-0.39h0.81v-0.39h2.07V359.56z
			 M573.69,373.53h0.42v-4.04h-0.42l-0.21-0.42h-6.25v0.42h-1.26v0.42h-0.81v0.42h-0.81v0.46l-0.28,0.18c0,0.04,0,0.07-0.04,0.14
			h-0.46v0.88l-0.32,0.14l-0.14,2.21h0.46v0.84h0.77v0.39h0.81l0.18,0.28c0.7,0,1.47,0.14,2.28,0.14l0.14,0.25l1.02,0.14v-0.39h2.07
			v-0.42h0.84v-0.39h0.77v-0.42h0.84v-0.42h0.39V373.53z M569.72,367.74H570v-0.42l-0.28-0.46V367.74z"/>
		<path class="st0" d="M601.47,377.25v-0.35h0.42v-0.42h0.42v-1.19l0.42-0.14v-11.62h-0.42v-0.81h-0.84v-0.84h-3.86v0.46h-0.39v0.39
			l-0.28,0.18c0,0.07-0.07,0.18-0.07,0.28h-0.49v12.46h0.42l0.11,0.28c0.11,0,0.21,0.04,0.32,0.07v0.49h1.19v1.47h-5.13v-0.42h-0.42
			v-0.63h0.42v-0.39l0.25-0.18c0-0.07,0.04-0.18,0.07-0.28h0.46v-2.46h0.46v-8.78h-0.46v-1.3h-0.35v-0.35h-0.42v-0.84h-0.42v-0.46
			h-3.44v0.46l-0.32,0.18c0,0.07-0.07,0.14-0.07,0.21h-0.91v0.46h-0.35v0.35l-0.42,0.18v11.94h0.42l0.11,0.28
			c0.04,0,0.18,0,0.25,0.04v0.53h1.69l0.11,0.28c0.11,0,0.21,0.04,0.32,0.07v0.7l-0.28,0.18c0,0.04-0.04,0.07-0.11,0.25h-5.16v-0.42
			h-0.84v-1.02l0.21-0.18c0-0.07,0.04-0.18,0.07-0.28h0.56v-0.39l0.21-0.14c0.04-3.9,0.14-8.46,0.18-12.36h-0.39v-0.46h-2.49v-0.84
			h-0.46v-0.25h0.46v-0.77h1.23v-0.42h2.11v-0.35h1.05v0.35h0.77l0.11,0.28l0.91,0.14v-0.42h1.61v-0.35h3.51v0.35h0.77l0.18,0.28
			c0.25,0,0.42,0.11,0.7,0.11v0.46h1.83v-0.42h0.84v-0.42h1.61v-0.35h3.12v0.35h0.81l0.11,0.28c0.07,0,0.25,0.04,0.32,0.07v0.49
			h0.42v0.81h0.32l0.18,0.25c0.11,0,0.21,0.04,0.32,0.07v1.33h0.39v6.81l-0.39,0.18v4.91h0.39l0.11,0.28c0.25,0,0.53,0.11,0.74,0.11
			v0.46h1.19v1.47h-5.55v-0.42h-0.42l-0.14-0.25c-0.04,0-0.14,0-0.25-0.04c0.07-0.04,0.18-0.04,0.25-0.04L601.47,377.25z
			 M590.23,377.11l0.35,0.14L590.23,377.11z M592.02,360.08h-0.14v-0.67l0.25,0.28L592.02,360.08z M598.41,377.11l0.42,0.14h-0.42
			V377.11z M601.04,377.07v0.04l-0.18,0.14L601.04,377.07z M607.86,377.25h-0.42v-0.14L607.86,377.25z"/>
		<path class="st0" d="M616.38,359.49h5.16l0.11,0.28c0.21,0,0.39,0.11,0.7,0.11l0.11,0.28c0.25,0,0.42,0.11,0.7,0.11v0.42h0.46
			l0.11,0.28c0.14,0,0.39,0.14,0.67,0.14v0.42h0.39l0.14,0.25c0.04,0,0.18,0,0.25,0.04v0.53h0.46v0.84H626l0.11,0.28
			c0.11,0,0.25,0.04,0.35,0.07v0.91h0.39v1.19h0.42v2.74l-0.28,0.18c0,0.04,0,0.11-0.04,0.18h-1.33v0.42h-10.67v0.42h-2.07v0.42
			h-0.35v1.79h0.35v0.84h0.46v0.84h0.35l0.14,0.25c0.14,0,0.25,0.07,0.35,0.07v0.49h0.35l0.11,0.28c0.25,0,0.49,0.11,0.74,0.11v0.46
			h0.84v0.39h1.61l0.11,0.42h3.79v-0.42h2.46v-0.39h1.23v-0.42h1.19v-0.42h1.09l0.11,0.28c0.11,0,0.21,0.04,0.32,0.07v0.7
			l-0.28,0.21c0,0.07-0.07,0.14-0.07,0.21h-0.49v0.42h-0.81v0.39h-0.84v0.42h-1.65v0.39h-1.61v0.46h-2.04v0.39h-3.51l-0.21-0.21
			l-0.77-0.11c-0.25-0.04-0.46-0.07-0.7-0.07v-0.46h-1.19l-0.18-0.21c-0.18,0-0.39-0.14-0.63-0.14v-0.46h-0.46v-0.39h-0.39v-0.42
			h-0.77l-0.18-0.21c-0.07,0-0.21-0.04-0.25-0.07v-0.91h-0.46v-0.46h-0.39v-0.88h-0.46v-2.04h-0.35v-3.09h0.35v-2.04h0.46v-0.74
			l0.21-0.18c0-0.21,0.14-0.42,0.14-0.7h0.49v-0.81l0.21-0.14c0-0.07,0.07-0.14,0.07-0.32h0.53v-0.42h0.39v-0.81l0.21-0.14
			c0-0.07,0.04-0.18,0.07-0.28h0.56v-0.39h0.77v-0.46h0.84v-0.39h0.81v-0.39h0.84V359.49z M624.17,366.05h0.39v-1.02h-0.39v-0.77
			h-0.42l-0.18-0.28c-0.07,0-0.18-0.04-0.21-0.07v-0.53h-0.46v-0.81h-0.77l-0.18-0.21c-0.07,0-0.21-0.04-0.25-0.07v-0.56h-1.23
			l-0.18-0.21c-1.16-0.04-2.53-0.14-3.69-0.18v0.39h-0.84v0.46l-0.28,0.18c0,0.07-0.07,0.14-0.07,0.21h-0.49V363l-0.28,0.21
			c0,0.04,0,0.11-0.04,0.18h-0.46v0.42l-0.35,0.25c0,0.04-0.04,0.14-0.04,0.21h-0.46v0.77l-0.46,0.21v2.42h7.2v-0.35h3.69v-0.46
			h0.42V366.05z M616.45,355.94c0,0.04,0.04,0.04,0.04,0.07l-0.14,0.18L616.45,355.94z M616.91,355.13l0.04-0.04l1.54-0.95
			l0.21,0.07l3.23-1.69c-0.04-0.04-0.14-0.25-0.14-0.28l1.02-0.63l0.14,0.28l0.21-0.14l0.18,0.25l0.21-0.14l0.49,0.98l-0.14,0.14
			l0.25,0.42l-0.74,0.42l0.18,0.35l-5.69,3.33v-0.04l-0.04,0.04l-0.07-0.28c-0.04,0.04-0.18,0.11-0.21,0.11l-0.18-0.25l-0.18,0.14
			l-0.74-1.19l0.14-0.18c-0.04-0.04-0.11-0.14-0.11-0.18l0.6-0.32L616.91,355.13z M616.73,355.17l0.11-0.35l0.11,0.28l-0.04,0.04
			L616.73,355.17z M617.99,357.73l-0.39-0.14c-0.11-0.04-0.14-0.11-0.25-0.14c0.04,0,0.18-0.07,0.21-0.11l0.11,0.25
			c0.04,0,0.14-0.04,0.18-0.07h0.04L617.99,357.73z M622.73,351.38l0.28,0.14l-0.18,0.11v-0.04l-0.04,0.04L622.73,351.38z
			 M623.05,351.48l-0.04,0.04L623.05,351.48z M623.4,351.62l-0.25,0.14l-0.11-0.25h0.04L623.4,351.62z M624.17,352.71
			c0,0.04-0.07,0.14-0.07,0.21c-0.04-0.04-0.07-0.07-0.07-0.11L624.17,352.71z"/>
	</g>
</g>
<g>
	<g>
		<path d="M220.16,4.75l-0.08-0.14c-0.22-0.34-0.45-0.67-0.69-1l-0.19-0.22c-0.3-0.3-0.63-0.58-1.08-0.95
			c-0.61-0.42-1.27-0.77-2.1-1.11c-2.62-1.02-5.17-1.24-7.54-1.32c-2.28-0.06-4.59,0.07-7.04,0.39c-3.96,0.48-8.2,1.39-13.37,2.85
			c-4.17,1.2-8.46,2.65-12.77,4.31c-7.92,3.12-15.81,6.92-24.12,11.63c-8.61,4.84-16.73,10.07-24.97,15.46
			c-3.59,0.47-7.79,0.98-12.02,1.23c-4.63,0.29-8.82,0.27-12.83-0.06c-1.22-0.08-2.42-0.23-3.69-0.39c-0.92-0.12-1.84-0.24-2.8-0.33
			c-1.67-0.16-3.32-0.28-4.97-0.4l-1.67-0.12c-8.95-0.66-17.75-1.56-26.13-2.67c-7.57-0.99-15.84-2.28-26.03-4.03
			c-1.03-0.17-2,0.5-2.21,1.52l-0.13,0.83l0.9,1.3l0.72,0.15c9.14,1.92,17.67,3.49,26.08,4.81c9.45,1.49,18.08,2.57,26.37,3.28
			l1.62,0.15c1.64,0.15,3.28,0.29,4.9,0.48c0.85,0.1,1.72,0.22,2.6,0.35c1.31,0.19,2.66,0.38,3.99,0.49
			c4.24,0.42,8.68,0.51,13.59,0.28c0.43-0.02,0.87-0.04,1.32-0.07c-3.15,2.04-6.28,4.04-9.42,5.99c-2.35,1.45-4.71,2.87-7.08,4.27
			c-3.55-0.58-6.82-1.01-9.95-1.32c-1.47-0.17-2.95-0.25-4.38-0.33c-0.77-0.04-1.55-0.09-2.37-0.15c-2.3-0.11-4.59-0.13-6.73-0.13
			c-4.84,0.02-9.21,0.19-13.38,0.5c-1.84,0.14-4.27,0.35-6.74,0.73c-1.35,0.21-2.46,0.43-3.65,0.75c-0.62,0.18-1.65,0.47-2.53,1.51
			c-0.52,0.65-1.05,1.79-0.68,3.59c1.15,4.77,4.73,8.99,9.6,11.3c2.32,1.08,4.72,1.72,7.16,1.91c2.32,0.16,4.75-0.03,7.22-0.58
			c4.79-1.04,9.12-3.15,12.81-5.05c4.35-2.26,8.83-4.71,13.34-7.28c7.74,1.42,15.54,3.36,23.1,5.25c5.1,1.27,10.35,2.58,15.61,3.74
			c-0.11,0.07-0.23,0.15-0.34,0.23c-2.48,1.66-4.94,3.31-7.44,4.91c-4.16,2.66-7.69,4.69-11.13,6.39c-2.81,1.4-5.81,2.74-9.14,4.09
			c-2.41-0.51-4.57-0.89-6.61-1.16c-5.11-0.66-9.71-0.69-14.04-0.08c-2.46,0.35-4.83,0.91-7.08,1.69l-1.72,0.65l-1.69,0.75
			l-0.58,0.29c-0.89,0.45-1.8,0.91-2.67,1.57c-1.57,0.98-3.3,3.26-3.37,5.95c-0.06,2.08,0.92,3.93,2.76,5.22l0.19,0.11
			c1.2,0.63,2.32,0.7,3.29,0.68c0.45-0.02,0.84-0.05,1.23-0.08L80,97.33c1.17-0.11,2.34-0.24,3.48-0.43
			c4.89-0.76,9.47-2.1,13.32-3.33c4.85-1.56,8.86-2.96,12.64-4.4c0.52-0.2,1.04-0.4,1.56-0.61c1.29,0.28,2.57,0.58,3.85,0.89
			c1.15,0.28,2.31,0.57,3.47,0.85c3.09,0.77,6.28,1.56,9.49,2.22c1.47,0.31,2.97,0.58,4.49,0.82c-1.83,1.16-3.67,2.32-5.53,3.45
			c-3.8,2.35-7.62,4.48-11.34,6.32c-3.87,1.87-7.9,3.42-11.99,4.59l-0.21,0.08c-0.88,0.36-1.38,1.33-1.13,2.27
			c0.25,0.97,1.21,1.58,2.2,1.42c0.05-0.01,0.11-0.02,0.16-0.03c4.35-1.13,8.65-2.65,12.78-4.52c3.9-1.81,7.9-3.91,11.87-6.22
			c2.15-1.24,4.27-2.51,6.4-3.78c1.49-0.89,2.98-1.78,4.48-2.66l0.02,0c0.44,0.04,0.88,0.08,1.32,0.11
			c4.74,0.3,9.32,0.28,13.62-0.08c2.47-0.2,4.68-0.45,6.78-0.77l0.49-0.08c0.96-0.15,1.9-0.3,2.9-0.5c1.12-0.23,2.59-0.61,4-1.46
			c0.77-0.48,1.42-1.03,1.96-1.67c0.55-0.67,0.98-1.43,1.27-2.25c0.71-1.95,0.52-4.05-0.48-5.59c-0.95-1.53-2.66-2.57-4.68-2.85
			c-0.67-0.1-1.37-0.14-2.15-0.11c-0.45,0.02-0.87,0.07-1.29,0.13l-0.54,0.07c-4.25,0.45-8.65,1.77-13.43,4.01
			c-2.83,1.34-5.78,2.94-9.27,5.02c-3.84-0.35-7.67-0.94-11.4-1.75c-2.82-0.61-5.7-1.35-8.51-2.07c0.43-0.21,0.86-0.41,1.28-0.62
			c3.67-1.81,7.41-3.94,11.78-6.73c2.73-1.74,5.42-3.53,8.09-5.31c1.87-1.25,3.73-2.49,5.6-3.71c7.14,1.24,13.54,1.91,19.5,2.03
			c1.68,0.1,3.35,0.03,4.97-0.03c0.63-0.02,1.25-0.05,1.88-0.06c2.09-0.06,4.36-0.27,6.94-0.66c5.56-0.82,10.03-2.55,13.63-5.15
			c0.36-0.25,0.71-0.53,1.05-0.82l0.76-0.65c0.38-0.35,0.76-0.71,1.2-1.16l0.38-0.42c0.29-0.32,0.58-0.63,0.92-1.08
			c0.43-0.59,0.96-1.41,1.28-2.59c0.18-0.71,0.23-1.38,0.14-2.04c-0.1-0.83-0.44-1.66-0.96-2.35c-0.43-0.55-0.96-1-1.63-1.38
			c-0.44-0.24-0.76-0.38-1.08-0.51l-0.65-0.26c-0.88-0.36-1.79-0.73-2.7-0.99c-4.26-1.4-9.07-1.94-14.3-1.63
			c-8.45,0.62-17.3,3.53-26.29,8.62c-2.27,1.26-4.65,2.69-7.45,4.48c-1.19-0.21-2.37-0.44-3.55-0.67
			c-5.56-1.12-11.22-2.44-16.7-3.72c-6.02-1.41-12.21-2.86-18.43-4.07c0.86-0.52,1.72-1.04,2.58-1.56
			c4.85-2.94,9.69-6.06,14.36-9.07l2.75-1.77c2.6-0.29,5.2-0.62,7.79-0.94c2.41-0.3,4.82-0.61,7.22-0.88
			c1.37-0.15,2.75-0.29,4.13-0.43c2.98-0.3,6.05-0.61,9.07-1.05c3.8-0.52,7.85-1.17,13.16-2.1l12.98-2.29
			c2.16-0.36,4.31-0.71,6.46-1.03l0.58-0.08c2.01-0.29,4.08-0.6,6.13-1.03c4.96-1.05,9.28-2.45,13.2-4.27
			c2.13-0.97,4.24-2.21,6.29-3.73c2.18-1.71,3.9-3.48,5.25-5.41c1.72-2.48,2.7-5.04,2.94-7.69C221.21,7.71,220.89,6.12,220.16,4.75z
			 M186.41,25.53l-0.61,0.09c-2.2,0.34-4.39,0.71-6.59,1.09l-13,2.38c-5.22,0.95-9.2,1.62-12.93,2.16
			c-2.92,0.44-5.78,0.75-8.81,1.08c-1.4,0.15-2.8,0.3-4.21,0.47c-0.83,0.1-1.65,0.2-2.47,0.3c5.14-3.15,10.5-6.32,15.96-9.26
			c8.19-4.45,15.91-8.01,23.59-10.89c9.74-3.52,17.63-5.56,24.85-6.43c2.12-0.27,4.18-0.37,6.11-0.32c2.35,0.08,4.07,0.37,5.4,0.91
			c0.36,0.14,0.59,0.27,0.73,0.36c0.05,0.05,0.1,0.09,0.15,0.13c0.04,0.06,0.08,0.12,0.12,0.18c0.08,0.21,0.2,0.64,0.17,1.42
			c-0.14,1.41-0.8,3-1.85,4.48c-0.97,1.37-2.3,2.72-3.9,3.97c-1.67,1.21-3.38,2.21-5.12,2.99c-3.68,1.68-7.67,2.99-11.88,3.89
			C190.25,24.95,188.39,25.23,186.41,25.53z M56.45,55.77c2.31-0.32,4.63-0.49,6.39-0.6c4.05-0.25,8.31-0.35,13.01-0.3
			c2.08,0.03,4.31,0.08,6.44,0.21c0.78,0.07,1.57,0.13,2.36,0.18c1.42,0.1,2.76,0.2,4.14,0.37c1,0.11,2.01,0.24,3.05,0.38
			c-2.88,1.61-5.6,3.07-8.22,4.41c-4.27,2.17-7.89,3.78-11.72,4.59c-2.04,0.45-4.02,0.59-5.89,0.45c-1.86-0.15-3.72-0.66-5.49-1.5
			c-1.86-0.93-3.38-2.07-4.51-3.39c-1.1-1.26-1.93-2.75-2.38-4.29C54.46,56.09,55.38,55.92,56.45,55.77z M82.81,90.19
			c-1.05,0.17-2.12,0.31-3.13,0.41c0.37-0.22,0.81-0.46,1.25-0.68l3.26-1.43c1.8-0.65,3.74-1.13,5.78-1.44
			c2.01-0.3,4.11-0.45,6.32-0.43c-0.53,0.18-1.05,0.35-1.57,0.52C91.45,88.18,87.16,89.47,82.81,90.19z M163.7,84.58
			c0.2-0.02,0.41-0.04,0.62-0.07c0.28-0.03,0.57-0.07,0.83-0.07c0.42-0.01,0.8,0.02,1.15,0.08c0.59,0.1,0.82,0.29,0.89,0.41
			c0.03,0.06,0.07,0.33-0.07,0.72c-0.09,0.22-0.21,0.43-0.35,0.59c-0.13,0.15-0.32,0.3-0.56,0.45c-0.97,0.57-2.49,0.77-4.1,1
			c-0.43,0.06-0.85,0.12-1.24,0.18c-1.96,0.27-4.04,0.47-6.36,0.61c-1.36,0.08-2.74,0.14-4.13,0.16c0.51-0.25,1.01-0.48,1.51-0.71
			C156.18,86,160.04,84.9,163.7,84.58z M155.71,62.9L155.71,62.9c8.1-4.66,15.99-7.31,23.41-7.92c4.37-0.29,8.35,0.13,11.9,1.27
			c0.56,0.15,1.12,0.36,1.7,0.6l-0.23,0.27c-0.23,0.24-0.48,0.47-0.72,0.7l-0.66,0.58c-0.21,0.17-0.42,0.35-0.66,0.52
			c-2.68,1.96-6.27,3.32-10.67,4.04c-0.05,0.01-0.1,0.02-0.16,0.03c-2.32,0.36-4.35,0.57-6.19,0.63c-0.69,0.02-1.38,0.05-2.08,0.08
			c-1.48,0.07-2.88,0.14-4.36,0.07c-3.64-0.04-7.43-0.29-11.48-0.75C155.58,62.98,155.64,62.94,155.71,62.9z"/>
		<g>
			<path d="M78.77,213.69c5.18-0.24,5.21-8.33,0-8.09c-18.89,0.86-39.41,4.37-58.19,2.66c-0.82-0.07-2.15,0.3-3.24,0.36
				c-0.18-0.61-0.56-1.46-1.29-2.73c-5.33-9.15-1.07-27.65-1.28-38.08c-0.49-25-4.25-50.16-6.65-75.04c-0.5-5.13-8.59-5.19-8.09,0
				c2.1,21.76,4.78,43.56,6.22,65.38c1.23,18.68-2.14,37.46,3.89,55.52c0.55,1.63,2.07,3.05,3.9,2.97
				C35.6,215.67,57.19,214.68,78.77,213.69z"/>
			<path d="M30.54,113.09c8.26-1.25,36.78-7.67,41.97-0.96c2.55,3.29,1.79,13.62,1.44,20.08c-16.2,1.59-45.79,7.48-42.92,28.46
				c1.92,14.03,16.93,23.13,29.01,27.5c6.37,2.31,15.85,5.9,20.05-1.1c4.51-7.52,1.88-24.61,1.94-33.07
				c0.1-13.44,1.78-29.46-1.5-42.64c-4.34-17.45-39.37-7.99-52.13-6.06C23.26,106.07,25.43,113.86,30.54,113.09z M73.72,166.44
				c-0.11,3.85-0.23,7.7-0.53,11.54c-0.07,0.95,0.06,4.43-0.47,5.01c-0.03,0.03-0.04,0.04-0.06,0.07
				c-7.57,3.08-25.43-10.14-29.35-15.14c-14.88-19.01,15.65-25.99,30.56-27.6C73.98,149.03,73.97,157.74,73.72,166.44z"/>
			<path d="M301.31,272.2c0.03-10.91,1.34-23.91-1.34-34.56c-4.18-16.61-33.92,0.18-43.48,4.46c-4.74,2.12-0.63,9.1,4.08,6.98
				c4.66-2.09,9.4-4.01,14.19-5.77c3.93-1.44,7.93-2.51,11.89-3.81c3.55-1.16,4.37-1.58,5.44-0.13c2.61,3.53,0.95,15.84,1.03,20.05
				c0.03,1.34,0.02,2.68,0.04,4.02c-14.14-1.46-40.05-1.4-37.43,17.59c1.6,11.58,13.36,19.33,23.26,23.42
				c5.84,2.41,16.74,7.05,20.61-0.34C303.71,296.22,301.29,280.7,301.31,272.2z M293.03,285.93c-0.1,3.37-0.29,6.73-0.46,10.09
				c-0.05,0.92,0.09,2.59-0.3,3.44c-0.13,0.28-0.23,0.49-0.31,0.67c-6.21,1.47-19.9-8-23.2-11.52
				c-16.67-17.74,13.49-18.29,24.47-17.12C293.22,276.31,293.17,281.12,293.03,285.93z"/>
			<path d="M243.01,129.73c8.02-1.3,38.24-8.85,42.45-4.36c1.9,2.02,2.66,6.56,3.01,11.27c-16.62,6.17-48.68,21.31-39.39,43.72
				c4.56,11,42.78,36.05,50.08,18.24c3.71-9.05-0.11-25.42-0.81-34.94c-0.89-12.1-0.06-29.08-5.09-40.44
				c-3.4-7.69-9.7-6.4-17.56-5.82c-11.66,0.86-23.31,2.67-34.84,4.54C235.74,122.76,237.91,130.55,243.01,129.73z M262.31,184.73
				c-19.52-17.32,10.7-33.37,26.52-39.6c0.05,1.64,0.1,3.07,0.2,4.13c1.03,10.38,1.8,20.8,2.23,31.22c0.15,3.67,0.2,7.33,0.26,10.99
				c0.05,3.1-0.78,4.42-0.18,4.39C283.65,198.47,267.22,189.08,262.31,184.73z"/>
			<path d="M135.11,213.12c17.8,2.18,25.34-0.45,25.21-18.5c-0.15-19.88-2.41-39.88-4.59-59.63c-0.56-5.12-8.66-5.17-8.09,0
				c1.4,12.72,2.6,25.46,3.52,38.22c0.6,8.29,1.35,16.75,1.06,25.07c-0.34,9.78-6.66,7.92-15.56,6.91
				c-8.75-0.99-21.39-2.85-28.51-8.4c-6.99-5.44-5.41-15.68-4.98-23.75c0.79-14.8,2.97-29.6,5.68-44.17
				c0.94-5.09-6.85-7.27-7.8-2.15c-3.51,18.89-7.25,39.12-6.1,58.38C96.21,206.25,116.65,210.86,135.11,213.12z"/>
			<path d="M172.92,208.78c0.28,5.18,8.37,5.21,8.09,0c-0.75-13.87-1.28-27.75-1.64-41.64c-0.1-3.61-0.15-7.23-0.22-10.84
				c8.55,7.71,17.19,15.33,25.99,22.75c8.87,7.48,21.52,21.49,33.45,23.85c5.08,1,7.26-6.79,2.15-7.8
				c-12.49-2.46-26.35-18.7-35.55-26.59c-6.96-5.98-13.8-12.09-20.61-18.24c17.53-6.74,37.28-16.62,47.3-32.09
				c4.86-7.5,7.59-19.03,1.17-26.63c-6.82-8.07-20.9-6.44-29.98-4.74c-10.37,1.94-24.65,6.12-29.35,16.73
				c-3.86,8.72-2.64,21.06-2.77,30.31C170.58,158.82,171.58,183.86,172.92,208.78z M180.91,107.56
				c4.64-10.39,23.79-14.63,34.16-13.88c19.68,1.42,13.48,18.12,3.27,27.62c-10.8,10.05-25.38,17.21-39.32,22.43
				c-0.01-3.29-0.05-6.58,0-9.87C179.13,126.2,177.72,114.72,180.91,107.56z"/>
			<path d="M258.54,303.6c-10.68-0.88-23.47-11.5-32.27-16.97c-4.88-3.04-9.67-6.21-14.48-9.37c13.62-5.08,28.94-12.57,35.89-24.55
				c11.45-19.75-10.36-29.11-26.91-26.96c-24.64,3.2-25.9,17.65-24.83,38.89c1.04,20.62,3.51,41.22,6.27,61.67
				c0.69,5.13,8.49,2.95,7.8-2.15c-1.36-10.08-2.83-22.76-3.92-33.69c-0.24-2.42-0.57-5-0.92-7.64
				c15.5,11.05,35.36,27.37,53.38,28.86C263.73,312.12,263.7,304.02,258.54,303.6z M203.84,246.79
				c2.33-10.89,13.46-13.57,23.89-13.41c16.8,0.25,16.89,13.15,6.75,22.02c-8.49,7.43-20.02,12.44-30.74,16.15
				C202.76,262.98,202.24,254.26,203.84,246.79z"/>
			<path d="M105.2,227.44c-10.25-1.8-33.12-1.17-37.87,9.62c-0.83,1.88-1.43,3.94-1.89,6.11c-0.63-1.73-1.33-3.39-2.1-4.95
				c-5.47-11.01-25.74-6.71-35.44-3.3c-25.83,9.07-13.14,54.25-9.4,74.48c0.94,5.11,8.74,2.95,7.8-2.15
				c-1.68-9.12-2.97-18.33-3.84-27.57c-1.34-14.34-5.16-32.96,11.45-38.08c3.64-1.12,18.56-4.02,21.51-1.9
				c1.68,1.21,2.33,10.64,2.84,12.71c2.57,10.42,5.38,20.8,8.2,31.16c1.16,4.28,8.29,3.59,7.94-1.08
				c-0.8-10.73-1.36-21.64-0.74-32.39c0.44-7.61,0.3-9.37,6.5-12.19c5.04-2.29,23.98-4.87,27.51-0.58
				c2.56,3.11,2.63,12.95,3.18,16.56c1.37,8.92,2.45,17.9,3.45,26.87c1.71,15.25,3.47,30.65,3.66,46c0.07,5.2,8.16,5.22,8.09,0
				c-0.29-22.22-3.21-44.63-6.21-66.62C118.28,248.61,119.52,229.95,105.2,227.44z"/>
			<path d="M163.24,229.73c-0.57-0.17-1.1-0.2-1.6-0.15c-20.27-2.16-33.33,15.24-35.1,34.35c-1.57,16.96,7.47,29.13,24.09,32.73
				C192.65,305.75,201.62,241.08,163.24,229.73z M152.78,288.85c-9.15-1.78-16.54-6.88-18.07-16.48
				c-2.51-15.76,7.62-37.76,26.38-34.85C189.54,245.94,184.52,295.04,152.78,288.85z"/>
		</g>
	</g>
	<g>
		<path d="M95.27,377.25v-0.35h0.42v-0.42h0.42v-1.19l0.42-0.14v-11.62h-0.42v-0.81h-0.84v-0.84h-3.86v0.46h-0.39v0.39l-0.28,0.18
			c0,0.07-0.07,0.18-0.07,0.28h-0.49v12.46h0.42l0.11,0.28c0.11,0,0.21,0.04,0.32,0.07v0.49h1.19v1.47h-5.13v-0.42h-0.42v-0.63h0.42
			v-0.39l0.25-0.18c0-0.07,0.04-0.18,0.07-0.28h0.46v-2.46h0.46v-8.78h-0.46v-1.3h-0.35v-0.35h-0.42v-0.84h-0.42v-0.46h-3.44v0.46
			l-0.32,0.18c0,0.07-0.07,0.14-0.07,0.21h-0.91v0.46h-0.35v0.35l-0.42,0.18v11.94h0.42l0.11,0.28c0.04,0,0.18,0,0.25,0.04v0.53
			h1.69l0.11,0.28c0.11,0,0.21,0.04,0.32,0.07v0.7l-0.28,0.18c0,0.04-0.04,0.07-0.11,0.25h-5.16v-0.42h-0.84v-1.02l0.21-0.18
			c0-0.07,0.04-0.18,0.07-0.28h0.56v-0.39l0.21-0.14c0.04-3.9,0.14-8.46,0.18-12.36h-0.39v-0.46H76v-0.84h-0.46v-0.25H76v-0.77h1.23
			v-0.42h2.11v-0.35h1.05v0.35h0.77l0.11,0.28l0.91,0.14v-0.42h1.61v-0.35h3.51v0.35h0.77l0.18,0.28c0.25,0,0.42,0.11,0.7,0.11v0.46
			h1.83v-0.42h0.84v-0.42h1.61v-0.35h3.12v0.35h0.81l0.11,0.28c0.07,0,0.25,0.04,0.32,0.07v0.49h0.42v0.81h0.32l0.18,0.25
			c0.11,0,0.21,0.04,0.32,0.07v1.33h0.39v6.81l-0.39,0.18v4.91h0.39l0.11,0.28c0.25,0,0.53,0.11,0.74,0.11v0.46h1.19v1.47h-5.55
			v-0.42h-0.42l-0.14-0.25c-0.04,0-0.14,0-0.25-0.04c0.07-0.04,0.18-0.04,0.25-0.04L95.27,377.25z M84.04,377.11l0.35,0.14
			L84.04,377.11z M85.83,360.08h-0.14v-0.67l0.25,0.28L85.83,360.08z M92.22,377.11l0.42,0.14h-0.42V377.11z M94.85,377.07v0.04
			l-0.18,0.14L94.85,377.07z M101.66,377.25h-0.42v-0.14L101.66,377.25z"/>
		<path d="M111.65,359.56h4.46l0.84,0.42h0.53v0.39h0.81l0.14,0.25c0.11,0,0.21,0.04,0.32,0.07v0.53h0.39l0.14,0.25
			c0.04,0,0.14,0,0.25,0.04h0.07v0.91h0.35v3.83h-0.35v9.34h2.32v-0.39h0.53v0.39h0.39l0.18,0.28c0.07,0,0.14,0.04,0.25,0.07v0.6
			l-0.28,0.18c0,0.04-0.04,0.11-0.04,0.14l-1.79,0.07v0.39h-1.19v0.46h-2.11v-0.46h-0.49l-0.18-0.21c-0.14,0-0.49-0.14-0.6-0.14
			v-0.46h-1.54v0.42h-1.19v0.39h-1.72v0.46h-4.95v-0.46h-0.81l-0.21-0.21c-0.21,0-0.46-0.14-0.6-0.14v-0.46h-0.84v-0.39h-0.46v-0.84
			h-0.35v-0.77h-0.42v-2.21h0.42v-0.77h0.35v-0.84h0.46v-0.46l0.21-0.14c0-0.07,0-0.14,0.04-0.25h0.95v-0.42h0.84V369h0.81v-0.42
			h1.23v-0.42h1.65v-0.42h4.91v-0.35h1.23v-0.46h0.42v-0.39l0.39-0.14v-3.9h-0.42l-0.18-0.21c-0.04,0-0.11-0.04-0.14-0.04l-0.07-0.6
			h-0.42l-0.18-0.21c-0.18,0-0.46-0.14-0.67-0.14l-0.14-0.46h-3.86v0.42h-0.81v0.39h-0.81v0.49l-0.25,0.18
			c0,0.04-0.07,0.11-0.07,0.18h-0.53v1.23h-0.35v0.49l-0.32,0.18c0,0.21-1.09,0.21-1.44,0.21v-0.42h-0.39l-0.21-0.28
			c-0.04,0-0.07,0.04-0.11,0.04c-0.11,0-0.14-1.26-0.14-1.54h0.46v-0.81h0.81v-0.39h0.81v-0.46h0.81v-0.39h0.81v-0.39h2.07V359.56z
			 M116.57,373.53h0.42v-4.04h-0.42l-0.21-0.42h-6.25v0.42h-1.26v0.42h-0.81v0.42h-0.81v0.46l-0.28,0.18c0,0.04,0,0.07-0.04,0.14
			h-0.46v0.88l-0.32,0.14l-0.14,2.21h0.46v0.84h0.77v0.39h0.81l0.18,0.28c0.7,0,1.47,0.14,2.28,0.14l0.14,0.25l1.02,0.14v-0.39h2.07
			v-0.42h0.84v-0.39h0.77v-0.42h0.84v-0.42h0.39V373.53z M112.6,367.74h0.28v-0.42l-0.28-0.46V367.74z"/>
		<path d="M132.52,359.56h4.6l0.18,0.28c0.32,0,0.7,0.14,1.05,0.14v0.39h0.77l0.14,0.25c0.11,0,0.21,0.04,0.32,0.07v0.53h0.39
			l0.14,0.25c0.04,0,0.14,0,0.21,0.04v0.49h0.46v0.84h0.39v2.07h0.46V365l-0.32,0.18c0,0.25-0.11,0.42-0.11,0.63h-0.42v0.42h-1.26
			l-0.21-0.25c-0.18,0-0.53-0.14-0.63-0.14v-0.88h-0.46v-2.46h-0.39l-0.18-0.21c-0.04,0-0.11-0.04-0.14-0.04l-0.07-0.6h-1.3
			l-0.14-0.39h-3.86v0.39h-0.77v0.46h-0.84v0.42l-0.25,0.18c0,0.04-0.04,0.11-0.04,0.14l-0.56,0.07v0.39h-0.35v0.46l-0.32,0.14
			c-0.04,0.11-0.07,0.14-0.07,0.28h-0.46v0.77l-0.28,0.21c0,0.18-0.04,0.39-0.07,0.56l-0.11,0.49h-0.35v5.27h0.35v1.19h0.46v0.35
			h0.39v0.88h0.46l0.18,0.28c0.04,0,0.11,0,0.18,0.04v0.53h0.84l0.18,0.28c0.25,0,0.46,0.11,0.67,0.11l0.14,0.25
			c-0.04,0-0.04,0-0.04,0s1.54,0.18,2,0.18l0.18,0.42h2.95v-0.42h2.46v-0.39h0.81v-0.42h1.19v-0.42h1.44l0.18,0.28
			c0.04,0,0.11,0,0.18,0.04v0.6h-0.35v0.46l-0.35,0.18c0,0.04-0.04,0.11-0.04,0.14l-0.95,0.07v0.39h-1.19v0.42h-0.84v0.39h-2v0.46
			h-1.26v0.39h-4.21l-0.18-0.21c0.04,0,0.04,0,0.04,0s-1.23-0.18-1.47-0.18v-0.46h-1.3l-0.18-0.21c-0.07,0-0.11-0.04-0.14-0.04
			v-0.56h-0.42v-0.39h-0.42v-0.42h-0.35l-0.21-0.21c-0.04,0-0.07,0.04-0.11,0.04c-0.04,0-0.04-0.04-0.07-0.04l-0.07-0.63h-0.39
			v-0.81h-0.46v-0.88h-0.39v-1.19h-0.46v-1.19h-0.35v-2.18h0.35v-2.46h0.46v-0.77l0.21-0.18c0-0.18,0.14-0.53,0.14-0.67h0.49v-0.84
			l0.21-0.14c0-0.07,0.07-0.21,0.07-0.28h0.56v-0.42h0.35v-0.42h0.42v-0.42l0.25-0.14c0-0.07,0-0.14,0.04-0.25h0.49v-0.39h0.84
			v-0.46h0.42v-0.39h1.23v-0.39h1.26V359.56z"/>
		<path d="M160.44,359.24h0.53v0.35h1.65l0.21,0.28c0.18,0,0.42,0.11,0.63,0.11v0.46h0.39l0.18,0.28c0.07,0,0.14,0.04,0.25,0.07
			v1.44l-0.28,0.18c0,0.04,0,0.07-0.04,0.14h-0.49v0.42h-3.02v-0.42h-1.23v-0.35h-1.09v0.35h-1.61v0.42h-0.84v0.42h-0.81v0.46
			l-0.28,0.18c0,0.04-0.04,0.18-0.07,0.25h-0.49v0.46l-0.28,0.18c0,0.04,0,0.07-0.04,0.14h-0.56v0.49l-0.28,0.18
			c0,0.04-0.07,0.11-0.07,0.18h-0.46v9.34h0.39l0.18,0.28c0.07,0,0.14,0.04,0.25,0.07v0.49h6.18l0.14,0.25
			c0.11,0,0.18,0.04,0.28,0.07v0.98l-0.28,0.21c0,0.28-2.88,0.25-3.51,0.25v-0.46h-1.09v0.46h-7.93v-0.46h-0.39l-0.18-0.21
			c-0.04,0-0.07,0.04-0.11,0.04c-0.11,0-0.14-0.49-0.14-0.7h0.46v-0.42h2v-0.42h0.84v-0.42l0.21-0.14c0-0.18,0.14-0.49,0.14-0.63
			h0.46v-7.37h-0.21l0.21-0.04v-1.16h-0.42v-3.33h-0.39v-0.35h-0.84v-0.46h-1.97v0.46h-1.69v-0.46h-0.42v-0.88h0.42v-0.42h2.39
			v-0.42h2.49v-0.42h1.33v0.84h0.39l0.18,0.28c0.07,0,0.14,0.04,0.25,0.07v1.26h0.39v0.84h1.58v-0.42h0.84v-0.42l0.21-0.14
			c0-0.07,0.07-0.21,0.07-0.28h0.56v-0.35h0.77v-0.42h0.84v-0.42h0.81v-0.42h0.84v-0.42h1.58V359.24z M144.92,363v-0.81h-0.35v0.42
			L144.92,363z M159.73,377.21h0.6v-0.07l-0.6-0.18V377.21z"/>
		<path d="M173.77,359.56h4.46l0.84,0.42h0.53v0.39h0.81l0.14,0.25c0.11,0,0.21,0.04,0.32,0.07v0.53h0.39l0.14,0.25
			c0.04,0,0.14,0,0.25,0.04h0.07v0.91h0.35v3.83h-0.35v9.34h2.32v-0.39h0.53v0.39h0.39l0.18,0.28c0.07,0,0.14,0.04,0.25,0.07v0.6
			l-0.28,0.18c0,0.04-0.04,0.11-0.04,0.14l-1.79,0.07v0.39h-1.19v0.46h-2.11v-0.46h-0.49l-0.18-0.21c-0.14,0-0.49-0.14-0.6-0.14
			v-0.46h-1.54v0.42h-1.19v0.39h-1.72v0.46h-4.95v-0.46h-0.81l-0.21-0.21c-0.21,0-0.46-0.14-0.6-0.14v-0.46h-0.84v-0.39h-0.46v-0.84
			h-0.35v-0.77h-0.42v-2.21h0.42v-0.77h0.35v-0.84h0.46v-0.46l0.21-0.14c0-0.07,0-0.14,0.04-0.25h0.95v-0.42h0.84V369h0.81v-0.42
			h1.23v-0.42h1.65v-0.42h4.91v-0.35h1.23v-0.46h0.42v-0.39l0.39-0.14v-3.9h-0.42l-0.18-0.21c-0.04,0-0.11-0.04-0.14-0.04l-0.07-0.6
			h-0.42l-0.18-0.21c-0.18,0-0.46-0.14-0.67-0.14l-0.14-0.46h-3.86v0.42h-0.81v0.39h-0.81v0.49l-0.25,0.18
			c0,0.04-0.07,0.11-0.07,0.18h-0.53v1.23h-0.35v0.49l-0.32,0.18c0,0.21-1.09,0.21-1.44,0.21v-0.42h-0.39l-0.21-0.28
			c-0.04,0-0.07,0.04-0.11,0.04c-0.11,0-0.14-1.26-0.14-1.54h0.46v-0.81h0.81v-0.39h0.81v-0.46h0.81v-0.39h0.81v-0.39h2.07V359.56z
			 M178.69,373.53h0.42v-4.04h-0.42l-0.21-0.42h-6.25v0.42h-1.26v0.42h-0.81v0.42h-0.81v0.46l-0.28,0.18c0,0.04,0,0.07-0.04,0.14
			h-0.46v0.88l-0.32,0.14l-0.14,2.21h0.46v0.84h0.77v0.39h0.81l0.18,0.28c0.7,0,1.47,0.14,2.28,0.14l0.14,0.25l1.02,0.14v-0.39h2.07
			v-0.42h0.84v-0.39h0.77v-0.42h0.84v-0.42h0.39V373.53z M174.72,367.74H175v-0.42l-0.28-0.46V367.74z"/>
		<path d="M206.47,377.25v-0.35h0.42v-0.42h0.42v-1.19l0.42-0.14v-11.62h-0.42v-0.81h-0.84v-0.84h-3.86v0.46h-0.39v0.39l-0.28,0.18
			c0,0.07-0.07,0.18-0.07,0.28h-0.49v12.46h0.42l0.11,0.28c0.11,0,0.21,0.04,0.32,0.07v0.49h1.19v1.47h-5.13v-0.42h-0.42v-0.63h0.42
			v-0.39l0.25-0.18c0-0.07,0.04-0.18,0.07-0.28h0.46v-2.46h0.46v-8.78h-0.46v-1.3h-0.35v-0.35h-0.42v-0.84h-0.42v-0.46h-3.44v0.46
			l-0.32,0.18c0,0.07-0.07,0.14-0.07,0.21h-0.91v0.46h-0.35v0.35l-0.42,0.18v11.94h0.42l0.11,0.28c0.04,0,0.18,0,0.25,0.04v0.53
			h1.69l0.11,0.28c0.11,0,0.21,0.04,0.32,0.07v0.7l-0.28,0.18c0,0.04-0.04,0.07-0.11,0.25h-5.16v-0.42h-0.84v-1.02l0.21-0.18
			c0-0.07,0.04-0.18,0.07-0.28h0.56v-0.39l0.21-0.14c0.04-3.9,0.14-8.46,0.18-12.36h-0.39v-0.46h-2.49v-0.84h-0.46v-0.25h0.46v-0.77
			h1.23v-0.42h2.11v-0.35h1.05v0.35h0.77l0.11,0.28l0.91,0.14v-0.42h1.61v-0.35h3.51v0.35h0.77l0.18,0.28c0.25,0,0.42,0.11,0.7,0.11
			v0.46h1.83v-0.42h0.84v-0.42h1.61v-0.35h3.12v0.35h0.81l0.11,0.28c0.07,0,0.25,0.04,0.32,0.07v0.49h0.42v0.81h0.32l0.18,0.25
			c0.11,0,0.21,0.04,0.32,0.07v1.33h0.39v6.81l-0.39,0.18v4.91h0.39l0.11,0.28c0.25,0,0.53,0.11,0.74,0.11v0.46h1.19v1.47h-5.55
			v-0.42h-0.42l-0.14-0.25c-0.04,0-0.14,0-0.25-0.04c0.07-0.04,0.18-0.04,0.25-0.04L206.47,377.25z M195.23,377.11l0.35,0.14
			L195.23,377.11z M197.02,360.08h-0.14v-0.67l0.25,0.28L197.02,360.08z M203.41,377.11l0.42,0.14h-0.42V377.11z M206.04,377.07
			v0.04l-0.18,0.14L206.04,377.07z M212.86,377.25h-0.42v-0.14L212.86,377.25z"/>
		<path d="M221.38,359.49h5.16l0.11,0.28c0.21,0,0.39,0.11,0.7,0.11l0.11,0.28c0.25,0,0.42,0.11,0.7,0.11v0.42h0.46l0.11,0.28
			c0.14,0,0.39,0.14,0.67,0.14v0.42h0.39l0.14,0.25c0.04,0,0.18,0,0.25,0.04v0.53h0.46v0.84H231l0.11,0.28
			c0.11,0,0.25,0.04,0.35,0.07v0.91h0.39v1.19h0.42v2.74l-0.28,0.18c0,0.04,0,0.11-0.04,0.18h-1.33v0.42h-10.67v0.42h-2.07v0.42
			h-0.35v1.79h0.35v0.84h0.46v0.84h0.35l0.14,0.25c0.14,0,0.25,0.07,0.35,0.07v0.49h0.35l0.11,0.28c0.25,0,0.49,0.11,0.74,0.11v0.46
			h0.84v0.39h1.61l0.11,0.42h3.79v-0.42h2.46v-0.39h1.23v-0.42h1.19v-0.42h1.09l0.11,0.28c0.11,0,0.21,0.04,0.32,0.07v0.7
			l-0.28,0.21c0,0.07-0.07,0.14-0.07,0.21h-0.49v0.42h-0.81v0.39h-0.84v0.42h-1.65v0.39h-1.61v0.46h-2.04v0.39h-3.51l-0.21-0.21
			l-0.77-0.11c-0.25-0.04-0.46-0.07-0.7-0.07v-0.46h-1.19l-0.18-0.21c-0.18,0-0.39-0.14-0.63-0.14v-0.46h-0.46v-0.39h-0.39v-0.42
			h-0.77l-0.18-0.21c-0.07,0-0.21-0.04-0.25-0.07v-0.91h-0.46v-0.46h-0.39v-0.88h-0.46v-2.04h-0.35v-3.09h0.35v-2.04h0.46v-0.74
			l0.21-0.18c0-0.21,0.14-0.42,0.14-0.7h0.49v-0.81l0.21-0.14c0-0.07,0.07-0.14,0.07-0.32h0.53v-0.42h0.39v-0.81l0.21-0.14
			c0-0.07,0.04-0.18,0.07-0.28h0.56v-0.39h0.77v-0.46h0.84v-0.39h0.81v-0.39h0.84V359.49z M229.17,366.05h0.39v-1.02h-0.39v-0.77
			h-0.42l-0.18-0.28c-0.07,0-0.18-0.04-0.21-0.07v-0.53h-0.46v-0.81h-0.77l-0.18-0.21c-0.07,0-0.21-0.04-0.25-0.07v-0.56h-1.23
			l-0.18-0.21c-1.16-0.04-2.53-0.14-3.69-0.18v0.39h-0.84v0.46l-0.28,0.18c0,0.07-0.07,0.14-0.07,0.21h-0.49V363l-0.28,0.21
			c0,0.04,0,0.11-0.04,0.18h-0.46v0.42l-0.35,0.25c0,0.04-0.04,0.14-0.04,0.21h-0.46v0.77l-0.46,0.21v2.42h7.2v-0.35h3.69v-0.46
			h0.42V366.05z M221.45,355.94c0,0.04,0.04,0.04,0.04,0.07l-0.14,0.18L221.45,355.94z M221.91,355.13l0.04-0.04l1.54-0.95
			l0.21,0.07l3.23-1.69c-0.04-0.04-0.14-0.25-0.14-0.28l1.02-0.63l0.14,0.28l0.21-0.14l0.18,0.25l0.21-0.14l0.49,0.98l-0.14,0.14
			l0.25,0.42l-0.74,0.42l0.18,0.35l-5.69,3.33v-0.04l-0.04,0.04l-0.07-0.28c-0.04,0.04-0.18,0.11-0.21,0.11l-0.18-0.25l-0.18,0.14
			l-0.74-1.19l0.14-0.18c-0.04-0.04-0.11-0.14-0.11-0.18l0.6-0.32L221.91,355.13z M221.73,355.17l0.11-0.35l0.11,0.28l-0.04,0.04
			L221.73,355.17z M222.99,357.73l-0.39-0.14c-0.11-0.04-0.14-0.11-0.25-0.14c0.04,0,0.18-0.07,0.21-0.11l0.11,0.25
			c0.04,0,0.14-0.04,0.18-0.07h0.04L222.99,357.73z M227.73,351.38l0.28,0.14l-0.18,0.11v-0.04l-0.04,0.04L227.73,351.38z
			 M228.05,351.48l-0.04,0.04L228.05,351.48z M228.4,351.62l-0.25,0.14l-0.11-0.25h0.04L228.4,351.62z M229.17,352.71
			c0,0.04-0.07,0.14-0.07,0.21c-0.04-0.04-0.07-0.07-0.07-0.11L229.17,352.71z"/>
	</g>
</g>
</svg>
