<?xml version="1.0" encoding="utf-8"?>
<!-- Generator: Adobe Illustrator 24.0.0, SVG Export Plug-In . SVG Version: 6.00 Build 0)  -->
<svg version="1.1" id="Capa_1" xmlns="http://www.w3.org/2000/svg" xmlns:xlink="http://www.w3.org/1999/xlink" x="0px" y="0px"
	 viewBox="0 0 302 378.2" style="enable-background:new 0 0 302 378.2;" xml:space="preserve">
<style type="text/css">
	.st0{fill:#F2F2F2;}
</style>
<g>
	<g>
		<path class="st0" d="M220.2,4.8l-0.1-0.1c-0.2-0.3-0.4-0.7-0.7-1l-0.2-0.2c-0.3-0.3-0.6-0.6-1.1-1c-0.6-0.4-1.3-0.8-2.1-1.1
			c-2.6-1-5.2-1.2-7.5-1.3c-2.3-0.1-4.6,0.1-7,0.4c-4,0.5-8.2,1.4-13.4,2.8c-4.2,1.2-8.5,2.7-12.8,4.3c-7.9,3.1-15.8,6.9-24.1,11.6
			c-8.6,4.8-16.7,10.1-25,15.5c-3.6,0.5-7.8,1-12,1.2c-4.6,0.3-8.8,0.3-12.8-0.1c-1.2-0.1-2.4-0.2-3.7-0.4c-0.9-0.1-1.8-0.2-2.8-0.3
			c-1.7-0.2-3.3-0.3-5-0.4l-1.7-0.1c-8.9-0.7-17.8-1.6-26.1-2.7c-7.6-1-15.8-2.3-26-4c-1-0.2-2,0.5-2.2,1.5l-0.1,0.8l0.9,1.3
			l0.7,0.1c9.1,1.9,17.7,3.5,26.1,4.8c9.4,1.5,18.1,2.6,26.4,3.3l1.6,0.2c1.6,0.2,3.3,0.3,4.9,0.5c0.8,0.1,1.7,0.2,2.6,0.3
			c1.3,0.2,2.7,0.4,4,0.5c4.2,0.4,8.7,0.5,13.6,0.3c0.4,0,0.9,0,1.3-0.1c-3.2,2-6.3,4-9.4,6c-2.3,1.5-4.7,2.9-7.1,4.3
			c-3.6-0.6-6.8-1-9.9-1.3c-1.5-0.2-2.9-0.3-4.4-0.3c-0.8,0-1.6-0.1-2.4-0.2c-2.3-0.1-4.6-0.1-6.7-0.1c-4.8,0-9.2,0.2-13.4,0.5
			c-1.8,0.1-4.3,0.3-6.7,0.7c-1.3,0.2-2.5,0.4-3.7,0.8c-0.6,0.2-1.7,0.5-2.5,1.5c-0.5,0.7-1,1.8-0.7,3.6c1.2,4.8,4.7,9,9.6,11.3
			c2.3,1.1,4.7,1.7,7.2,1.9c2.3,0.2,4.8,0,7.2-0.6c4.8-1,9.1-3.2,12.8-5.1c4.3-2.3,8.8-4.7,13.3-7.3c7.7,1.4,15.5,3.4,23.1,5.3
			c5.1,1.3,10.3,2.6,15.6,3.7c-0.1,0.1-0.2,0.2-0.3,0.2c-2.5,1.7-4.9,3.3-7.4,4.9c-4.2,2.7-7.7,4.7-11.1,6.4
			c-2.8,1.4-5.8,2.7-9.1,4.1c-2.4-0.5-4.6-0.9-6.6-1.2c-5.1-0.7-9.7-0.7-14-0.1c-2.5,0.3-4.8,0.9-7.1,1.7l-1.7,0.7l-1.7,0.8L78,83.9
			c-0.9,0.4-1.8,0.9-2.7,1.6c-1.6,1-3.3,3.3-3.4,5.9c-0.1,2.1,0.9,3.9,2.8,5.2l0.2,0.1c1.2,0.6,2.3,0.7,3.3,0.7
			c0.4,0,0.8-0.1,1.2-0.1l0.6,0c1.2-0.1,2.3-0.2,3.5-0.4c4.9-0.8,9.5-2.1,13.3-3.3c4.8-1.6,8.9-3,12.6-4.4c0.5-0.2,1-0.4,1.6-0.6
			c1.3,0.3,2.6,0.6,3.8,0.9c1.2,0.3,2.3,0.6,3.5,0.8c3.1,0.8,6.3,1.6,9.5,2.2c1.5,0.3,3,0.6,4.5,0.8c-1.8,1.2-3.7,2.3-5.5,3.4
			c-3.8,2.3-7.6,4.5-11.3,6.3c-3.9,1.9-7.9,3.4-12,4.6l-0.2,0.1c-0.9,0.4-1.4,1.3-1.1,2.3c0.3,1,1.2,1.6,2.2,1.4c0.1,0,0.1,0,0.2,0
			c4.3-1.1,8.7-2.7,12.8-4.5c3.9-1.8,7.9-3.9,11.9-6.2c2.1-1.2,4.3-2.5,6.4-3.8c1.5-0.9,3-1.8,4.5-2.7h0c0.4,0,0.9,0.1,1.3,0.1
			c4.7,0.3,9.3,0.3,13.6-0.1c2.5-0.2,4.7-0.4,6.8-0.8l0.5-0.1c1-0.2,1.9-0.3,2.9-0.5c1.1-0.2,2.6-0.6,4-1.5c0.8-0.5,1.4-1,2-1.7
			c0.6-0.7,1-1.4,1.3-2.3c0.7-1.9,0.5-4.1-0.5-5.6c-0.9-1.5-2.7-2.6-4.7-2.8c-0.7-0.1-1.4-0.1-2.1-0.1c-0.4,0-0.9,0.1-1.3,0.1
			l-0.5,0.1c-4.3,0.4-8.6,1.8-13.4,4c-2.8,1.3-5.8,2.9-9.3,5c-3.8-0.3-7.7-0.9-11.4-1.8c-2.8-0.6-5.7-1.3-8.5-2.1
			c0.4-0.2,0.9-0.4,1.3-0.6c3.7-1.8,7.4-3.9,11.8-6.7c2.7-1.7,5.4-3.5,8.1-5.3c1.9-1.3,3.7-2.5,5.6-3.7c7.1,1.2,13.5,1.9,19.5,2
			c1.7,0.1,3.4,0,5,0c0.6,0,1.3-0.1,1.9-0.1c2.1-0.1,4.4-0.3,6.9-0.7c5.6-0.8,10-2.6,13.6-5.2c0.4-0.3,0.7-0.5,1.1-0.8l0.8-0.7
			c0.4-0.3,0.8-0.7,1.2-1.2l0.4-0.4c0.3-0.3,0.6-0.6,0.9-1.1c0.4-0.6,1-1.4,1.3-2.6c0.2-0.7,0.2-1.4,0.1-2c-0.1-0.8-0.4-1.7-1-2.3
			c-0.4-0.5-1-1-1.6-1.4c-0.4-0.2-0.8-0.4-1.1-0.5l-0.6-0.3c-0.9-0.4-1.8-0.7-2.7-1c-4.3-1.4-9.1-1.9-14.3-1.6
			c-8.4,0.6-17.3,3.5-26.3,8.6c-2.3,1.3-4.6,2.7-7.4,4.5c-1.2-0.2-2.4-0.4-3.6-0.7c-5.6-1.1-11.2-2.4-16.7-3.7
			c-6-1.4-12.2-2.9-18.4-4.1c0.9-0.5,1.7-1,2.6-1.6c4.8-2.9,9.7-6.1,14.4-9.1l2.8-1.8c2.6-0.3,5.2-0.6,7.8-0.9
			c2.4-0.3,4.8-0.6,7.2-0.9c1.4-0.2,2.8-0.3,4.1-0.4c3-0.3,6.1-0.6,9.1-1c3.8-0.5,7.9-1.2,13.2-2.1l13-2.3c2.2-0.4,4.3-0.7,6.5-1
			l0.6-0.1c2-0.3,4.1-0.6,6.1-1c5-1,9.3-2.5,13.2-4.3c2.1-1,4.2-2.2,6.3-3.7c2.2-1.7,3.9-3.5,5.3-5.4c1.7-2.5,2.7-5,2.9-7.7
			C221.2,7.7,220.9,6.1,220.2,4.8z M186.4,25.5l-0.6,0.1c-2.2,0.3-4.4,0.7-6.6,1.1l-13,2.4c-5.2,1-9.2,1.6-12.9,2.2
			c-2.9,0.4-5.8,0.8-8.8,1.1c-1.4,0.2-2.8,0.3-4.2,0.5c-0.8,0.1-1.6,0.2-2.5,0.3c5.1-3.1,10.5-6.3,16-9.3c8.2-4.4,15.9-8,23.6-10.9
			c9.7-3.5,17.6-5.6,24.9-6.4c2.1-0.3,4.2-0.4,6.1-0.3c2.4,0.1,4.1,0.4,5.4,0.9c0.4,0.1,0.6,0.3,0.7,0.4c0.1,0.1,0.1,0.1,0.1,0.1
			c0,0.1,0.1,0.1,0.1,0.2c0.1,0.2,0.2,0.6,0.2,1.4c-0.1,1.4-0.8,3-1.9,4.5c-1,1.4-2.3,2.7-3.9,4c-1.7,1.2-3.4,2.2-5.1,3
			c-3.7,1.7-7.7,3-11.9,3.9C190.3,25,188.4,25.2,186.4,25.5z M56.5,55.8c2.3-0.3,4.6-0.5,6.4-0.6c4-0.3,8.3-0.3,13-0.3
			c2.1,0,4.3,0.1,6.4,0.2c0.8,0.1,1.6,0.1,2.4,0.2c1.4,0.1,2.8,0.2,4.1,0.4c1,0.1,2,0.2,3.1,0.4c-2.9,1.6-5.6,3.1-8.2,4.4
			c-4.3,2.2-7.9,3.8-11.7,4.6c-2,0.4-4,0.6-5.9,0.4c-1.9-0.2-3.7-0.7-5.5-1.5c-1.9-0.9-3.4-2.1-4.5-3.4c-1.1-1.3-1.9-2.8-2.4-4.3
			C54.5,56.1,55.4,55.9,56.5,55.8z M82.8,90.2c-1.1,0.2-2.1,0.3-3.1,0.4c0.4-0.2,0.8-0.5,1.3-0.7l3.3-1.4c1.8-0.7,3.7-1.1,5.8-1.4
			c2-0.3,4.1-0.4,6.3-0.4c-0.5,0.2-1.1,0.3-1.6,0.5C91.4,88.2,87.2,89.5,82.8,90.2z M163.7,84.6c0.2,0,0.4,0,0.6-0.1
			c0.3,0,0.6-0.1,0.8-0.1c0.4,0,0.8,0,1.1,0.1c0.6,0.1,0.8,0.3,0.9,0.4c0,0.1,0.1,0.3-0.1,0.7c-0.1,0.2-0.2,0.4-0.4,0.6
			c-0.1,0.2-0.3,0.3-0.6,0.4c-1,0.6-2.5,0.8-4.1,1c-0.4,0.1-0.9,0.1-1.2,0.2c-2,0.3-4,0.5-6.4,0.6c-1.4,0.1-2.7,0.1-4.1,0.2
			c0.5-0.3,1-0.5,1.5-0.7C156.2,86,160,84.9,163.7,84.6z M155.7,62.9L155.7,62.9c8.1-4.7,16-7.3,23.4-7.9c4.4-0.3,8.4,0.1,11.9,1.3
			c0.6,0.2,1.1,0.4,1.7,0.6l-0.2,0.3c-0.2,0.2-0.5,0.5-0.7,0.7l-0.7,0.6c-0.2,0.2-0.4,0.3-0.7,0.5c-2.7,2-6.3,3.3-10.7,4
			c-0.1,0-0.1,0-0.2,0c-2.3,0.4-4.4,0.6-6.2,0.6c-0.7,0-1.4,0-2.1,0.1c-1.5,0.1-2.9,0.1-4.4,0.1c-3.6,0-7.4-0.3-11.5-0.8
			C155.6,63,155.6,62.9,155.7,62.9z"/>
		<g>
			<path class="st0" d="M78.8,213.7c5.2-0.2,5.2-8.3,0-8.1c-18.9,0.9-39.4,4.4-58.2,2.7c-0.8-0.1-2.1,0.3-3.2,0.4
				c-0.2-0.6-0.6-1.5-1.3-2.7c-5.3-9.1-1.1-27.6-1.3-38.1c-0.5-25-4.3-50.2-6.7-75c-0.5-5.1-8.6-5.2-8.1,0
				c2.1,21.8,4.8,43.6,6.2,65.4c1.2,18.7-2.1,37.5,3.9,55.5c0.6,1.6,2.1,3.1,3.9,3C35.6,215.7,57.2,214.7,78.8,213.7z"/>
			<path class="st0" d="M30.5,113.1c8.3-1.3,36.8-7.7,42-1c2.6,3.3,1.8,13.6,1.4,20.1c-16.2,1.6-45.8,7.5-42.9,28.5
				c1.9,14,16.9,23.1,29,27.5c6.4,2.3,15.8,5.9,20.1-1.1c4.5-7.5,1.9-24.6,1.9-33.1c0.1-13.4,1.8-29.5-1.5-42.6
				c-4.3-17.4-39.4-8-52.1-6.1C23.3,106.1,25.4,113.9,30.5,113.1z M73.7,166.4c-0.1,3.9-0.2,7.7-0.5,11.5c-0.1,0.9,0.1,4.4-0.5,5
				c0,0,0,0-0.1,0.1c-7.6,3.1-25.4-10.1-29.3-15.1c-14.9-19,15.7-26,30.6-27.6C74,149,74,157.7,73.7,166.4z"/>
			<path class="st0" d="M301.3,272.2c0-10.9,1.3-23.9-1.3-34.6c-4.2-16.6-33.9,0.2-43.5,4.5c-4.7,2.1-0.6,9.1,4.1,7
				c4.7-2.1,9.4-4,14.2-5.8c3.9-1.4,7.9-2.5,11.9-3.8c3.5-1.2,4.4-1.6,5.4-0.1c2.6,3.5,1,15.8,1,20.1c0,1.3,0,2.7,0,4
				C279,262,253.1,262,255.7,281c1.6,11.6,13.4,19.3,23.3,23.4c5.8,2.4,16.7,7,20.6-0.3C303.7,296.2,301.3,280.7,301.3,272.2z
				 M293,285.9c-0.1,3.4-0.3,6.7-0.5,10.1c0,0.9,0.1,2.6-0.3,3.4c-0.1,0.3-0.2,0.5-0.3,0.7c-6.2,1.5-19.9-8-23.2-11.5
				c-16.7-17.7,13.5-18.3,24.5-17.1C293.2,276.3,293.2,281.1,293,285.9z"/>
			<path class="st0" d="M243,129.7c8-1.3,38.2-8.8,42.4-4.4c1.9,2,2.7,6.6,3,11.3c-16.6,6.2-48.7,21.3-39.4,43.7
				c4.6,11,42.8,36.1,50.1,18.2c3.7-9.1-0.1-25.4-0.8-34.9c-0.9-12.1-0.1-29.1-5.1-40.4c-3.4-7.7-9.7-6.4-17.6-5.8
				c-11.7,0.9-23.3,2.7-34.8,4.5C235.7,122.8,237.9,130.6,243,129.7z M262.3,184.7c-19.5-17.3,10.7-33.4,26.5-39.6
				c0,1.6,0.1,3.1,0.2,4.1c1,10.4,1.8,20.8,2.2,31.2c0.1,3.7,0.2,7.3,0.3,11c0,3.1-0.8,4.4-0.2,4.4
				C283.6,198.5,267.2,189.1,262.3,184.7z"/>
			<path class="st0" d="M135.1,213.1c17.8,2.2,25.3-0.4,25.2-18.5c-0.1-19.9-2.4-39.9-4.6-59.6c-0.6-5.1-8.7-5.2-8.1,0
				c1.4,12.7,2.6,25.5,3.5,38.2c0.6,8.3,1.4,16.8,1.1,25.1c-0.3,9.8-6.7,7.9-15.6,6.9c-8.8-1-21.4-2.9-28.5-8.4
				c-7-5.4-5.4-15.7-5-23.8c0.8-14.8,3-29.6,5.7-44.2c0.9-5.1-6.8-7.3-7.8-2.2c-3.5,18.9-7.3,39.1-6.1,58.4
				C96.2,206.3,116.7,210.9,135.1,213.1z"/>
			<path class="st0" d="M172.9,208.8c0.3,5.2,8.4,5.2,8.1,0c-0.8-13.9-1.3-27.8-1.6-41.6c-0.1-3.6-0.1-7.2-0.2-10.8
				c8.6,7.7,17.2,15.3,26,22.8c8.9,7.5,21.5,21.5,33.4,23.9c5.1,1,7.3-6.8,2.1-7.8c-12.5-2.5-26.4-18.7-35.6-26.6
				c-7-6-13.8-12.1-20.6-18.2c17.5-6.7,37.3-16.6,47.3-32.1c4.9-7.5,7.6-19,1.2-26.6c-6.8-8.1-20.9-6.4-30-4.7
				c-10.4,1.9-24.6,6.1-29.4,16.7c-3.9,8.7-2.6,21.1-2.8,30.3C170.6,158.8,171.6,183.9,172.9,208.8z M180.9,107.6
				c4.6-10.4,23.8-14.6,34.2-13.9c19.7,1.4,13.5,18.1,3.3,27.6c-10.8,10.1-25.4,17.2-39.3,22.4c0-3.3-0.1-6.6,0-9.9
				C179.1,126.2,177.7,114.7,180.9,107.6z"/>
			<path class="st0" d="M258.5,303.6c-10.7-0.9-23.5-11.5-32.3-17c-4.9-3-9.7-6.2-14.5-9.4c13.6-5.1,28.9-12.6,35.9-24.6
				c11.4-19.8-10.4-29.1-26.9-27c-24.6,3.2-25.9,17.6-24.8,38.9c1,20.6,3.5,41.2,6.3,61.7c0.7,5.1,8.5,3,7.8-2.1
				c-1.4-10.1-2.8-22.8-3.9-33.7c-0.2-2.4-0.6-5-0.9-7.6c15.5,11,35.4,27.4,53.4,28.9C263.7,312.1,263.7,304,258.5,303.6z
				 M203.8,246.8c2.3-10.9,13.5-13.6,23.9-13.4c16.8,0.3,16.9,13.1,6.8,22c-8.5,7.4-20,12.4-30.7,16.1
				C202.8,263,202.2,254.3,203.8,246.8z"/>
			<path class="st0" d="M105.2,227.4c-10.3-1.8-33.1-1.2-37.9,9.6c-0.8,1.9-1.4,3.9-1.9,6.1c-0.6-1.7-1.3-3.4-2.1-4.9
				c-5.5-11-25.7-6.7-35.4-3.3c-25.8,9.1-13.1,54.2-9.4,74.5c0.9,5.1,8.7,3,7.8-2.1c-1.7-9.1-3-18.3-3.8-27.6
				c-1.3-14.3-5.2-33,11.5-38.1c3.6-1.1,18.6-4,21.5-1.9c1.7,1.2,2.3,10.6,2.8,12.7c2.6,10.4,5.4,20.8,8.2,31.2
				c1.2,4.3,8.3,3.6,7.9-1.1c-0.8-10.7-1.4-21.6-0.7-32.4c0.4-7.6,0.3-9.4,6.5-12.2c5-2.3,24-4.9,27.5-0.6
				c2.6,3.1,2.6,12.9,3.2,16.6c1.4,8.9,2.4,17.9,3.4,26.9c1.7,15.3,3.5,30.6,3.7,46c0.1,5.2,8.2,5.2,8.1,0
				c-0.3-22.2-3.2-44.6-6.2-66.6C118.3,248.6,119.5,229.9,105.2,227.4z"/>
			<path class="st0" d="M163.2,229.7c-0.6-0.2-1.1-0.2-1.6-0.1c-20.3-2.2-33.3,15.2-35.1,34.3c-1.6,17,7.5,29.1,24.1,32.7
				C192.6,305.8,201.6,241.1,163.2,229.7z M152.8,288.9c-9.1-1.8-16.5-6.9-18.1-16.5c-2.5-15.8,7.6-37.8,26.4-34.9
				C189.5,245.9,184.5,295,152.8,288.9z"/>
		</g>
	</g>
	<g>
		<path class="st0" d="M95.3,377.3v-0.4h0.4v-0.4h0.4v-1.2l0.4-0.1v-11.6h-0.4v-0.8h-0.8v-0.8h-3.9v0.5H91v0.4l-0.3,0.2
			c0,0.1-0.1,0.2-0.1,0.3h-0.5v12.5h0.4l0.1,0.3c0.1,0,0.2,0,0.3,0.1v0.5h1.2v1.5h-5.1v-0.4h-0.4v-0.6h0.4v-0.4l0.3-0.2
			c0-0.1,0-0.2,0.1-0.3h0.5v-2.5h0.5v-8.8h-0.5v-1.3h-0.3v-0.4h-0.4v-0.8h-0.4v-0.5h-3.4v0.5l-0.3,0.2c0,0.1-0.1,0.1-0.1,0.2h-0.9
			v0.5h-0.3v0.4l-0.4,0.2v11.9h0.4l0.1,0.3c0,0,0.2,0,0.3,0v0.5h1.7l0.1,0.3c0.1,0,0.2,0,0.3,0.1v0.7l-0.3,0.2c0,0,0,0.1-0.1,0.3
			h-5.2v-0.4h-0.8v-1l0.2-0.2c0-0.1,0-0.2,0.1-0.3h0.6v-0.4l0.2-0.1c0-3.9,0.1-8.5,0.2-12.4h-0.4v-0.5H76v-0.8h-0.5v-0.3H76v-0.8
			h1.2v-0.4h2.1v-0.4h1.1v0.4h0.8l0.1,0.3l0.9,0.1v-0.4h1.6v-0.4h3.5v0.4h0.8l0.2,0.3c0.3,0,0.4,0.1,0.7,0.1v0.5h1.8v-0.4h0.8v-0.4
			h1.6v-0.4h3.1v0.4h0.8l0.1,0.3c0.1,0,0.3,0,0.3,0.1v0.5H98v0.8h0.3l0.2,0.3c0.1,0,0.2,0,0.3,0.1v1.3h0.4v6.8l-0.4,0.2v4.9h0.4
			l0.1,0.3c0.3,0,0.5,0.1,0.7,0.1v0.5h1.2v1.5h-5.6v-0.4h-0.4l-0.1-0.3c0,0-0.1,0-0.3,0c0.1,0,0.2,0,0.3,0L95.3,377.3z M84,377.1
			l0.3,0.1L84,377.1z M85.8,360.1h-0.1v-0.7l0.3,0.3L85.8,360.1z M92.2,377.1l0.4,0.1h-0.4V377.1z M94.8,377.1L94.8,377.1l-0.2,0.2
			L94.8,377.1z M101.7,377.3h-0.4v-0.1L101.7,377.3z"/>
		<path class="st0" d="M111.7,359.6h4.5l0.8,0.4h0.5v0.4h0.8l0.1,0.3c0.1,0,0.2,0,0.3,0.1v0.5h0.4l0.1,0.3c0,0,0.1,0,0.3,0h0.1v0.9
			h0.3v3.8h-0.3v9.3h2.3v-0.4h0.5v0.4h0.4l0.2,0.3c0.1,0,0.1,0,0.3,0.1v0.6l-0.3,0.2c0,0,0,0.1,0,0.1l-1.8,0.1v0.4H120v0.5h-2.1
			v-0.5h-0.5l-0.2-0.2c-0.1,0-0.5-0.1-0.6-0.1v-0.5H115v0.4h-1.2v0.4h-1.7v0.5h-4.9v-0.5h-0.8l-0.2-0.2c-0.2,0-0.5-0.1-0.6-0.1v-0.5
			h-0.8v-0.4h-0.5v-0.8h-0.3v-0.8h-0.4v-2.2h0.4v-0.8h0.3v-0.8h0.5v-0.5l0.2-0.1c0-0.1,0-0.1,0-0.3h0.9v-0.4h0.8V369h0.8v-0.4h1.2
			v-0.4h1.7v-0.4h4.9v-0.4h1.2v-0.5h0.4v-0.4l0.4-0.1v-3.9H117l-0.2-0.2c0,0-0.1,0-0.1,0l-0.1-0.6h-0.4l-0.2-0.2
			c-0.2,0-0.5-0.1-0.7-0.1l-0.1-0.5h-3.9v0.4h-0.8v0.4h-0.8v0.5l-0.3,0.2c0,0-0.1,0.1-0.1,0.2h-0.5v1.2h-0.3v0.5l-0.3,0.2
			c0,0.2-1.1,0.2-1.4,0.2v-0.4h-0.4l-0.2-0.3c0,0-0.1,0-0.1,0c-0.1,0-0.1-1.3-0.1-1.5h0.5v-0.8h0.8v-0.4h0.8v-0.5h0.8v-0.4h0.8V360
			h2.1L111.7,359.6L111.7,359.6z M116.6,373.5h0.4v-4h-0.4l-0.2-0.4h-6.3v0.4h-1.3v0.4H108v0.4h-0.8v0.5L107,371c0,0,0,0.1,0,0.1
			h-0.5v0.9l-0.3,0.1l-0.1,2.2h0.5v0.8h0.8v0.4h0.8l0.2,0.3c0.7,0,1.5,0.1,2.3,0.1l0.1,0.3l1,0.1V376h2.1v-0.4h0.8v-0.4h0.8v-0.4
			h0.8v-0.4h0.4L116.6,373.5L116.6,373.5z M112.6,367.7h0.3v-0.4l-0.3-0.5V367.7z"/>
		<path class="st0" d="M132.5,359.6h4.6l0.2,0.3c0.3,0,0.7,0.1,1.1,0.1v0.4h0.8l0.1,0.3c0.1,0,0.2,0,0.3,0.1v0.5h0.4l0.1,0.3
			c0,0,0.1,0,0.2,0v0.5h0.5v0.8h0.4v2.1h0.5v0.1l-0.3,0.2c0,0.3-0.1,0.4-0.1,0.6h-0.4v0.4h-1.3l-0.2-0.3c-0.2,0-0.5-0.1-0.6-0.1V365
			h-0.5v-2.5h-0.4l-0.2-0.2c0,0-0.1,0-0.1,0l-0.1-0.6h-1.3l-0.1-0.4h-3.9v0.4h-0.8v0.5h-0.8v0.4l-0.3,0.2c0,0,0,0.1,0,0.1l-0.6,0.1
			v0.4h-0.4v0.5l-0.3,0.1c0,0.1-0.1,0.1-0.1,0.3h-0.5v0.8l-0.3,0.2c0,0.2,0,0.4-0.1,0.6l-0.1,0.5h-0.3v5.3h0.3v1.2h0.5v0.4h0.4v0.9
			h0.5l0.2,0.3c0,0,0.1,0,0.2,0v0.5h0.8l0.2,0.3c0.3,0,0.5,0.1,0.7,0.1l0.1,0.3c0,0,0,0,0,0s1.5,0.2,2,0.2l0.2,0.4h2.9v-0.4h2.5
			v-0.4h0.8v-0.4h1.2v-0.4h1.4l0.2,0.3c0,0,0.1,0,0.2,0v0.6h-0.4v0.5l-0.4,0.2c0,0,0,0.1,0,0.1l-0.9,0.1v0.4H140v0.4h-0.8v0.4h-2
			v0.5h-1.3v0.4h-4.2l-0.2-0.2c0,0,0,0,0,0s-1.2-0.2-1.5-0.2v-0.5h-1.3l-0.2-0.2c-0.1,0-0.1,0-0.1,0v-0.6H128v-0.4h-0.4v-0.4h-0.3
			l-0.2-0.2c0,0-0.1,0-0.1,0s0,0-0.1,0l-0.1-0.6h-0.4v-0.8h-0.5v-0.9h-0.4V372h-0.5v-1.2h-0.3v-2.2h0.3v-2.5h0.5v-0.8l0.2-0.2
			c0-0.2,0.1-0.5,0.1-0.7h0.5v-0.8l0.2-0.1c0-0.1,0.1-0.2,0.1-0.3h0.6v-0.4h0.3v-0.4h0.4V362l0.3-0.1c0-0.1,0-0.1,0-0.3h0.5v-0.4
			h0.8v-0.5h0.4v-0.4h1.2V360h1.3L132.5,359.6L132.5,359.6z"/>
		<path class="st0" d="M160.4,359.2h0.5v0.4h1.6l0.2,0.3c0.2,0,0.4,0.1,0.6,0.1v0.5h0.4l0.2,0.3c0.1,0,0.1,0,0.3,0.1v1.4l-0.3,0.2
			c0,0,0,0.1,0,0.1h-0.5v0.4h-3v-0.4h-1.2v-0.4h-1.1v0.4h-1.6v0.4h-0.8v0.4h-0.8v0.5l-0.3,0.2c0,0,0,0.2-0.1,0.3H154v0.5l-0.3,0.2
			c0,0,0,0.1,0,0.1h-0.6v0.5l-0.3,0.2c0,0-0.1,0.1-0.1,0.2h-0.5v9.3h0.4l0.2,0.3c0.1,0,0.1,0,0.3,0.1v0.5h6.2l0.1,0.3
			c0.1,0,0.2,0,0.3,0.1v1l-0.3,0.2c0,0.3-2.9,0.3-3.5,0.3v-0.5h-1.1v0.5h-7.9v-0.5h-0.4l-0.2-0.2c0,0-0.1,0-0.1,0
			c-0.1,0-0.1-0.5-0.1-0.7h0.5v-0.4h2v-0.4h0.8v-0.4l0.2-0.1c0-0.2,0.1-0.5,0.1-0.6h0.5v-7.4H150l0.2,0v-1.2h-0.4v-3.3h-0.4v-0.4
			h-0.8v-0.5h-2v0.5h-1.7v-0.5h-0.4v-0.9h0.4v-0.4h2.4v-0.4h2.5v-0.4h1.3v0.8h0.4l0.2,0.3c0.1,0,0.1,0,0.3,0.1v1.3h0.4v0.8h1.6v-0.4
			h0.8v-0.4l0.2-0.1c0-0.1,0.1-0.2,0.1-0.3h0.6v-0.4h0.8v-0.4h0.8v-0.4h0.8v-0.4h0.8v-0.4h1.6L160.4,359.2L160.4,359.2z M144.9,363
			v-0.8h-0.4v0.4L144.9,363z M159.7,377.2h0.6v-0.1l-0.6-0.2V377.2z"/>
		<path class="st0" d="M173.8,359.6h4.5l0.8,0.4h0.5v0.4h0.8l0.1,0.3c0.1,0,0.2,0,0.3,0.1v0.5h0.4l0.1,0.3c0,0,0.1,0,0.3,0h0.1v0.9
			h0.4v3.8h-0.4v9.3h2.3v-0.4h0.5v0.4h0.4l0.2,0.3c0.1,0,0.1,0,0.3,0.1v0.6l-0.3,0.2c0,0,0,0.1,0,0.1l-1.8,0.1v0.4h-1.2v0.5H180
			v-0.5h-0.5l-0.2-0.2c-0.1,0-0.5-0.1-0.6-0.1v-0.5h-1.5v0.4H176v0.4h-1.7v0.5h-4.9v-0.5h-0.8l-0.2-0.2c-0.2,0-0.5-0.1-0.6-0.1v-0.5
			h-0.8v-0.4h-0.5v-0.8H166v-0.8h-0.4v-2.2h0.4v-0.8h0.4v-0.8h0.5v-0.5l0.2-0.1c0-0.1,0-0.1,0-0.3h0.9v-0.4h0.8V369h0.8v-0.4h1.2
			v-0.4h1.6v-0.4h4.9v-0.4h1.2v-0.5h0.4v-0.4l0.4-0.1v-3.9h-0.4l-0.2-0.2c0,0-0.1,0-0.1,0l-0.1-0.6h-0.4l-0.2-0.2
			c-0.2,0-0.5-0.1-0.7-0.1l-0.1-0.5h-3.9v0.4h-0.8v0.4h-0.8v0.5l-0.3,0.2c0,0-0.1,0.1-0.1,0.2H171v1.2h-0.4v0.5l-0.3,0.2
			c0,0.2-1.1,0.2-1.4,0.2v-0.4h-0.4l-0.2-0.3c0,0-0.1,0-0.1,0c-0.1,0-0.1-1.3-0.1-1.5h0.5v-0.8h0.8v-0.4h0.8v-0.5h0.8v-0.4h0.8V360
			h2.1L173.8,359.6L173.8,359.6z M178.7,373.5h0.4v-4h-0.4l-0.2-0.4h-6.3v0.4H171v0.4h-0.8v0.4h-0.8v0.5l-0.3,0.2c0,0,0,0.1,0,0.1
			h-0.5v0.9l-0.3,0.1l-0.1,2.2h0.5v0.8h0.8v0.4h0.8l0.2,0.3c0.7,0,1.5,0.1,2.3,0.1l0.1,0.3l1,0.1V376h2.1v-0.4h0.8v-0.4h0.8v-0.4
			h0.8v-0.4h0.4L178.7,373.5L178.7,373.5z M174.7,367.7h0.3v-0.4l-0.3-0.5V367.7z"/>
		<path class="st0" d="M206.5,377.3v-0.4h0.4v-0.4h0.4v-1.2l0.4-0.1v-11.6h-0.4v-0.8h-0.8v-0.8h-3.9v0.5h-0.4v0.4l-0.3,0.2
			c0,0.1-0.1,0.2-0.1,0.3h-0.5v12.5h0.4l0.1,0.3c0.1,0,0.2,0,0.3,0.1v0.5h1.2v1.5h-5.1v-0.4h-0.4v-0.6h0.4v-0.4l0.3-0.2
			c0-0.1,0-0.2,0.1-0.3h0.5v-2.5h0.5v-8.8h-0.5v-1.3h-0.4v-0.4h-0.4v-0.8h-0.4v-0.5h-3.4v0.5l-0.3,0.2c0,0.1-0.1,0.1-0.1,0.2h-0.9
			v0.5h-0.4v0.4l-0.4,0.2v11.9h0.4l0.1,0.3c0,0,0.2,0,0.3,0v0.5h1.7l0.1,0.3c0.1,0,0.2,0,0.3,0.1v0.7l-0.3,0.2c0,0,0,0.1-0.1,0.3
			h-5.2v-0.4h-0.8v-1l0.2-0.2c0-0.1,0-0.2,0.1-0.3h0.6v-0.4l0.2-0.1c0-3.9,0.1-8.5,0.2-12.4h-0.4v-0.5h-2.5v-0.8h-0.5v-0.3h0.5v-0.8
			h1.2v-0.4h2.1v-0.4h1.1v0.4h0.8l0.1,0.3l0.9,0.1v-0.4h1.6v-0.4h3.5v0.4h0.8l0.2,0.3c0.3,0,0.4,0.1,0.7,0.1v0.5h1.8v-0.4h0.8v-0.4
			h1.6v-0.4h3.1v0.4h0.8l0.1,0.3c0.1,0,0.3,0,0.3,0.1v0.5h0.4v0.8h0.3l0.2,0.3c0.1,0,0.2,0,0.3,0.1v1.3h0.4v6.8l-0.4,0.2v4.9h0.4
			l0.1,0.3c0.3,0,0.5,0.1,0.7,0.1v0.5h1.2v1.5h-5.6v-0.4h-0.4L206.5,377.3c-0.1,0.1-0.2,0.1-0.3,0
			C206.2,377.2,206.3,377.2,206.5,377.3L206.5,377.3z M195.2,377.1l0.4,0.1L195.2,377.1z M197,360.1h-0.1v-0.7l0.3,0.3L197,360.1z
			 M203.4,377.1l0.4,0.1h-0.4V377.1z M206,377.1L206,377.1l-0.2,0.2L206,377.1z M212.9,377.3h-0.4v-0.1L212.9,377.3z"/>
		<path class="st0" d="M221.4,359.5h5.2l0.1,0.3c0.2,0,0.4,0.1,0.7,0.1l0.1,0.3c0.3,0,0.4,0.1,0.7,0.1v0.4h0.5l0.1,0.3
			c0.1,0,0.4,0.1,0.7,0.1v0.4h0.4l0.1,0.3c0,0,0.2,0,0.3,0v0.5h0.5v0.8h0.4l0.1,0.3c0.1,0,0.3,0,0.4,0.1v0.9h0.4v1.2h0.4v2.7
			l-0.3,0.2c0,0,0,0.1,0,0.2h-1.3v0.4H220v0.4h-2.1v0.4h-0.4v1.8h0.4v0.8h0.5v0.8h0.4l0.1,0.3c0.1,0,0.3,0.1,0.4,0.1v0.5h0.4
			l0.1,0.3c0.3,0,0.5,0.1,0.7,0.1v0.5h0.8v0.4h1.6l0.1,0.4h3.8v-0.4h2.5v-0.4h1.2v-0.4h1.2v-0.4h1.1l0.1,0.3c0.1,0,0.2,0,0.3,0.1
			v0.7l-0.3,0.2c0,0.1-0.1,0.1-0.1,0.2h-0.5v0.4h-0.8v0.4h-0.8v0.4H229v0.4h-1.6v0.5h-2v0.4h-3.5l-0.2-0.2l-0.8-0.1
			c-0.3,0-0.5-0.1-0.7-0.1v-0.5H219l-0.2-0.2c-0.2,0-0.4-0.1-0.6-0.1v-0.5h-0.5v-0.4h-0.4v-0.4h-0.8l-0.2-0.2c-0.1,0-0.2,0-0.3-0.1
			v-0.9h-0.5v-0.5h-0.4v-0.9h-0.5v-2h-0.4v-3.1h0.4v-2h0.5v-0.7l0.2-0.2c0-0.2,0.1-0.4,0.1-0.7h0.5v-0.8l0.2-0.1
			c0-0.1,0.1-0.1,0.1-0.3h0.5v-0.4h0.4v-0.8l0.2-0.1c0-0.1,0-0.2,0.1-0.3h0.6v-0.4h0.8v-0.5h0.8v-0.4h0.8v-0.4h0.8L221.4,359.5
			L221.4,359.5z M229.2,366h0.4v-1h-0.4v-0.8h-0.4l-0.2-0.3c-0.1,0-0.2,0-0.2-0.1v-0.5h-0.5v-0.8h-0.8l-0.2-0.2
			c-0.1,0-0.2,0-0.3-0.1v-0.6h-1.2l-0.2-0.2c-1.2,0-2.5-0.1-3.7-0.2v0.4h-0.8v0.5l-0.3,0.2c0,0.1-0.1,0.1-0.1,0.2h-0.5v0.4l-0.3,0.2
			c0,0,0,0.1,0,0.2h-0.5v0.4l-0.4,0.3c0,0,0,0.1,0,0.2h-0.5v0.8l-0.5,0.2v2.4h7.2v-0.4h3.7v-0.5h0.4L229.2,366L229.2,366z
			 M221.4,355.9C221.4,356,221.5,356,221.4,355.9l-0.1,0.3L221.4,355.9z M221.9,355.1L221.9,355.1l1.6-1l0.2,0.1l3.2-1.7
			c0,0-0.1-0.3-0.1-0.3l1-0.6l0.1,0.3l0.2-0.1l0.2,0.3l0.2-0.1l0.5,1l-0.1,0.1l0.3,0.4l-0.7,0.4l0.2,0.4l-5.7,3.3v0l0,0l-0.1-0.3
			c0,0-0.2,0.1-0.2,0.1l-0.2-0.3l-0.2,0.1l-0.7-1.2l0.1-0.2c0,0-0.1-0.1-0.1-0.2l0.6-0.3L221.9,355.1z M221.7,355.2l0.1-0.4l0.1,0.3
			l0,0L221.7,355.2z M223,357.7l-0.4-0.1c-0.1,0-0.1-0.1-0.3-0.1c0,0,0.2-0.1,0.2-0.1l0.1,0.3c0,0,0.1,0,0.2-0.1h0L223,357.7z
			 M227.7,351.4l0.3,0.1l-0.2,0.1v0l0,0L227.7,351.4z M228.1,351.5L228.1,351.5L228.1,351.5z M228.4,351.6l-0.3,0.1l-0.1-0.3h0
			L228.4,351.6z M229.2,352.7c0,0-0.1,0.1-0.1,0.2c0,0-0.1-0.1-0.1-0.1L229.2,352.7z"/>
	</g>
</g>
</svg>
